<svg width="165" height="36" viewBox="0 0 165 36" fill="none" xmlns="http://www.w3.org/2000/svg">
<path d="M150.651 11.7942C148.828 11.7967 147.634 12.0218 146.638 12.4713C149.406 13.1979 151.427 15.4815 151.427 18.1916C151.427 20.856 149.473 23.1109 146.776 23.8757C147.662 24.2941 148.623 24.6157 150.344 24.5859C153.788 24.5261 163.742 19.2253 165 17.5928C164.084 16.5304 156.212 11.7859 150.651 11.7942Z" fill="#D1DE84"/>
<path fill-rule="evenodd" clip-rule="evenodd" d="M149.755 23.404C149.47 23.2711 149.156 23.1059 148.819 22.9158C147.693 23.6907 146.287 24.1561 144.757 24.1561C143.261 24.1561 141.886 23.7111 140.772 22.9679C141.973 25.1676 144.443 27.4314 146.875 28.9216C151.571 31.7996 159.484 28.2146 159.484 28.2146C156.9 28.0252 151.783 24.3468 149.755 23.404Z" fill="#F9CB74"/>
<path fill-rule="evenodd" clip-rule="evenodd" d="M148.835 22.9049C147.706 23.6862 146.295 24.156 144.758 24.156C142.489 24.156 140.487 23.1414 139.282 21.594C139.602 23.2749 140.814 25.4637 143.185 28.1669C148.935 34.7239 148.407 35.6673 148.407 35.6673C149.936 33.2146 149.832 26.9882 149.41 24.8184C149.314 24.3251 149.122 23.6481 148.835 22.9049Z" fill="#F9CB74"/>
<path fill-rule="evenodd" clip-rule="evenodd" d="M139.323 14.7389C139.363 14.6887 139.405 14.6397 139.447 14.5902C139.576 14.4395 139.712 14.2939 139.855 14.154C139.896 14.1159 139.933 14.0752 139.974 14.0371C140.158 13.868 140.352 13.7078 140.557 13.559C140.593 13.5329 140.631 13.5107 140.666 13.4859C140.84 13.3651 141.021 13.2519 141.209 13.1464C141.273 13.1108 141.337 13.0758 141.401 13.0421C141.593 12.9417 141.792 12.8489 141.996 12.7656C142.038 12.7491 142.075 12.7294 142.117 12.7135C142.361 12.6194 142.613 12.5399 142.871 12.4725C142.936 12.4554 143.004 12.442 143.069 12.4267C143.272 12.3797 143.477 12.3403 143.687 12.3104C143.765 12.299 143.842 12.2875 143.921 12.278C144.196 12.2475 144.473 12.2265 144.757 12.2265C145.044 12.2265 145.327 12.2481 145.605 12.2799C145.672 12.2882 145.737 12.2971 145.802 12.3072C146.047 12.3416 146.287 12.3867 146.523 12.4445C146.55 12.4515 146.578 12.4573 146.605 12.4636C147.178 12.6111 147.715 12.826 148.213 13.0968C148.642 12.1388 148.918 11.2379 149.039 10.6257C149.461 8.50043 149.566 2.40181 148.037 0C148.037 0 148.565 0.92309 142.814 7.34594C139.607 10.927 138.519 13.5882 138.896 15.3384C139.024 15.1299 139.169 14.9315 139.323 14.7389Z" fill="#F9CB74"/>
<path fill-rule="evenodd" clip-rule="evenodd" d="M144.757 12.2265C145.846 12.2265 146.87 12.4643 147.778 12.8775C148.372 12.5215 148.919 12.2246 149.387 12.0123C151.414 11.0879 156.531 7.48395 159.116 7.29959C159.116 7.29959 151.203 3.78905 146.509 6.606C143.363 8.49477 140.151 11.6487 139.711 14.2965C140.934 13.0308 142.738 12.2265 144.757 12.2265Z" fill="#F9CB74"/>
<path fill-rule="evenodd" clip-rule="evenodd" d="M144.758 12.2265C145.846 12.2265 146.871 12.4642 147.779 12.8775C148.019 12.7338 148.248 12.6041 148.472 12.4808C148.754 11.7605 148.946 11.1044 149.041 10.6257C149.244 9.6028 149.372 7.65617 149.281 5.64661C148.296 5.80173 147.351 6.10116 146.509 6.60593C143.363 8.49471 140.151 11.6486 139.711 14.2964C140.935 13.0307 142.739 12.2265 144.758 12.2265Z" fill="#F6B131"/>
<path fill-rule="evenodd" clip-rule="evenodd" d="M149.831 10.3485C147.386 10.4508 145.592 11.2169 144.308 12.2468C144.457 12.2373 144.606 12.2265 144.757 12.2265C148.441 12.2265 151.428 14.8965 151.428 18.1916C151.428 18.2151 151.424 18.2373 151.423 18.2609C151.455 18.2412 151.487 18.2221 151.519 18.2017C156.847 14.8762 161.174 12.2888 163.653 12.1038C160.406 11.5926 157.533 10.0255 149.831 10.3485Z" fill="#C9C4C0"/>
<path fill-rule="evenodd" clip-rule="evenodd" d="M151.889 17.0828C151.657 16.9347 151.427 16.798 151.2 16.6689C151.344 17.1559 151.428 17.6639 151.428 18.1922C151.428 21.1013 149.098 23.5203 146.016 24.0473C147.131 24.6322 148.51 25.0289 150.201 25.1014C157.902 25.4319 160.776 23.8324 164.022 23.3099C161.543 23.1204 157.216 20.4796 151.889 17.0828Z" fill="#C9C4C0"/>
<path d="M63.9272 14.0002C62.2997 14.0002 61.0234 14.3779 60.0998 15.1338C59.1755 15.889 58.7141 16.9316 58.7141 18.2603C58.7141 19.5788 59.1755 20.6183 60.0963 21.3742C61.0192 22.13 62.2876 22.5064 63.9024 22.5064C65.5363 22.5064 66.8161 22.13 67.739 21.3786C68.6626 20.6265 69.1248 19.5877 69.1248 18.2603C69.1248 16.9316 68.6626 15.8884 67.7404 15.1338C66.8204 14.3772 65.5505 14.0002 63.9272 14.0002ZM63.9201 21.2864C63.3172 21.2864 62.8799 21.0467 62.6055 20.5687C62.3296 20.0881 62.1924 19.3106 62.1924 18.2368C62.1924 17.1815 62.3296 16.4141 62.6076 15.9373C62.8842 15.4605 63.3257 15.2209 63.9308 15.2209C64.5337 15.2209 64.971 15.4631 65.2455 15.945C65.5213 16.4307 65.6586 17.2044 65.6586 18.2718C65.6586 19.3309 65.5213 20.0982 65.2455 20.5725C64.9717 21.0493 64.5302 21.2864 63.9201 21.2864ZM52.9968 14.0002C51.8997 14.0002 51.0152 14.2488 50.349 14.7428C49.6792 15.238 49.3457 15.889 49.3457 16.6945C49.3457 17.0696 49.4332 17.4021 49.6045 17.6958C49.7752 17.9895 50.0432 18.2578 50.4044 18.5013C50.5566 18.6055 50.804 18.7187 51.151 18.8401C51.493 18.9596 51.9843 19.1046 52.6185 19.2762C52.8155 19.3322 53.0835 19.4002 53.4312 19.4822C54.4899 19.7429 55.0189 20.0658 55.0189 20.4517C55.0189 20.7003 54.8959 20.9024 54.6527 21.055C54.4096 21.2089 54.0846 21.2858 53.6794 21.2858C53.0089 21.2858 52.428 21.1135 51.9324 20.7632C51.4375 20.4142 51.0848 19.9304 50.8708 19.3131H49.5725V22.3036H50.8033L51.1375 21.8586C51.6224 22.076 52.1087 22.24 52.6007 22.3456C53.0921 22.4536 53.6047 22.507 54.1358 22.507C55.299 22.507 56.2212 22.2661 56.9081 21.7855C57.5914 21.3036 57.9355 20.6596 57.9355 19.8484C57.9355 19.1192 57.6554 18.5445 57.0986 18.1224C56.5412 17.699 55.5707 17.3461 54.1884 17.06C54.0519 17.0333 53.8628 16.9971 53.6189 16.9488C52.6256 16.767 52.1286 16.4968 52.1286 16.1382C52.1286 15.9011 52.2566 15.7008 52.5161 15.5387C52.7742 15.3747 53.1048 15.2927 53.5059 15.2927C54.1906 15.2927 54.7366 15.4332 55.1455 15.7104C55.555 15.9888 55.8344 16.411 55.9816 16.9787H57.494V14.191H56.2056L55.9617 14.5966C55.5102 14.3938 55.041 14.2444 54.5603 14.1446C54.0761 14.0486 53.5549 14.0002 52.9968 14.0002ZM131.754 14.2399H122.332V15.376H122.771C123.087 15.376 123.29 15.4135 123.378 15.4841C123.464 15.5559 123.509 15.7472 123.509 16.0588V20.4987C123.509 20.7937 123.464 20.9755 123.37 21.0366C123.274 21.0989 123.08 21.1307 122.782 21.1307H122.333V22.2667H131.805V18.9526H130.333C130.307 19.3697 130.254 19.7162 130.172 19.9921C130.092 20.268 129.981 20.5 129.843 20.6926C129.716 20.8516 129.535 20.966 129.304 21.0315C129.069 21.0976 128.645 21.1307 128.03 21.1307H126.439V18.6297H126.799C127.214 18.6297 127.495 18.7142 127.64 18.8808C127.787 19.0467 127.867 19.4097 127.887 19.9698H129.01V16.3105H127.887V16.3785C127.887 16.8267 127.802 17.1376 127.64 17.3137C127.477 17.4898 127.191 17.5769 126.785 17.5769H126.44V15.3753H127.859C128.405 15.3753 128.8 15.4078 129.045 15.472C129.288 15.5355 129.495 15.6436 129.667 15.7962C129.814 15.9278 129.938 16.1026 130.042 16.3213C130.145 16.5387 130.242 16.8414 130.333 17.2304H131.755V14.2399H131.754ZM117.557 14.2399H111.376V15.3722H111.827C112.146 15.3722 112.348 15.4084 112.434 15.4802C112.522 15.5521 112.567 15.7434 112.567 16.0562V20.4396C112.567 20.7524 112.522 20.9463 112.433 21.0194C112.344 21.0925 112.141 21.1313 111.827 21.1313H111.751V22.2674H116.782V21.1313H116.271C115.961 21.1313 115.76 21.0925 115.67 21.0194C115.581 20.9463 115.536 20.7524 115.536 20.4396V18.643H116.343C116.843 18.643 117.174 18.7161 117.333 18.8617C117.491 19.0073 117.571 19.3487 117.571 19.8846V20.5585C117.571 21.2203 117.759 21.7016 118.132 22.0042C118.501 22.3087 119.096 22.46 119.911 22.46C120.677 22.46 121.233 22.2909 121.578 21.9559C121.922 21.6183 122.094 21.0754 122.094 20.3284C122.094 20.2921 122.093 20.2406 122.088 20.1682C122.083 20.0951 122.081 20.0429 122.081 20.008H121.171C121.171 20.0391 121.173 20.0849 121.177 20.1472C121.182 20.2108 121.185 20.254 121.185 20.2826C121.185 20.5591 121.156 20.767 121.098 20.9037C121.038 21.0404 120.949 21.1084 120.828 21.1084C120.701 21.1084 120.611 21.0525 120.556 20.9406C120.503 20.83 120.475 20.6316 120.475 20.3424C120.475 19.3887 120.369 18.7778 120.152 18.5095C119.936 18.2451 119.524 18.0772 118.912 18.0117C119.517 17.8973 119.982 17.6888 120.314 17.3792C120.645 17.0721 120.811 16.692 120.811 16.2412C120.811 15.5692 120.541 15.0689 120.004 14.7377C119.464 14.4058 118.649 14.2399 117.557 14.2399ZM115.509 17.554V15.4243H116.394C116.917 15.4243 117.281 15.5063 117.488 15.6703C117.696 15.8331 117.798 16.1185 117.798 16.5248C117.798 16.8935 117.687 17.1592 117.46 17.3169C117.238 17.4733 116.848 17.554 116.298 17.554H115.509ZM108.214 14.2399H104.968L102.606 20.3055C102.493 20.5986 102.358 20.8083 102.203 20.9374C102.051 21.0677 101.859 21.1313 101.632 21.1313H101.299V22.2674H105.313V21.1313H104.87C104.669 21.1313 104.514 21.1116 104.407 21.0728C104.297 21.0347 104.243 20.9794 104.243 20.9075C104.243 20.8528 104.251 20.7937 104.27 20.7263C104.285 20.6602 104.319 20.5687 104.368 20.4517L104.647 19.6837H107.065L107.385 20.5445C107.403 20.6005 107.416 20.6539 107.427 20.7124C107.439 20.7683 107.442 20.8268 107.442 20.891C107.442 20.9838 107.406 21.0461 107.33 21.0811C107.254 21.1148 107.046 21.1307 106.706 21.1307H106.302V22.2667H111.376V21.1313H111.28C111.019 21.1313 110.828 21.0893 110.71 21.0054C110.591 20.9215 110.463 20.6806 110.318 20.282L108.214 14.2399ZM105.06 18.535L105.825 16.1039L106.641 18.535H105.06ZM102.537 14.2399H99.1119V15.376C99.4234 15.376 99.6246 15.3982 99.7163 15.4408C99.8094 15.4841 99.8578 15.5648 99.8578 15.6805L99.8436 15.8165C99.8336 15.8655 99.8237 15.9189 99.8059 15.9787L98.6569 20.055L97.5491 15.9895C97.5271 15.9151 97.5128 15.8579 97.505 15.8121L97.4944 15.6805C97.4944 15.5686 97.5377 15.4891 97.628 15.4446C97.7176 15.3989 97.8954 15.3766 98.1606 15.3766H98.4564V14.2399H94.026V15.376C94.3965 15.3849 94.6581 15.4478 94.8124 15.5661C94.9639 15.6856 95.0733 15.9164 95.1381 16.2641L94.0985 20.055L92.8223 15.9895L92.781 15.8401L92.7689 15.6805C92.7689 15.5724 92.8116 15.4942 92.8962 15.4472C92.9808 15.4014 93.1252 15.3766 93.3299 15.3766V14.2399H89.1684V15.376C89.457 15.3849 89.6867 15.4656 89.863 15.6157C90.0365 15.767 90.1794 16.0193 90.2932 16.3696L92.1425 22.2674H95.0179L95.9259 19.0041L96.8089 22.2674H99.6601L101.53 16.1548C101.622 15.8655 101.739 15.6633 101.889 15.5476C102.036 15.4345 102.253 15.3766 102.535 15.3766V14.2399H102.537ZM88.928 14.2399H79.4807V17.2794H80.8047V17.2438C80.8047 16.6742 80.9362 16.2412 81.1986 15.9431C81.4595 15.6462 81.8356 15.4955 82.3277 15.4955H82.7187V20.4403C82.7187 20.7721 82.6718 20.9692 82.5758 21.0347C82.4798 21.0982 82.2843 21.13 81.9835 21.13H81.2874V22.2661H87.1882V21.1313H86.438C86.1216 21.1313 85.9162 21.0925 85.8244 21.0169C85.7341 20.9425 85.6901 20.7486 85.6901 20.4409V15.4961H86.0804C86.5767 15.4961 86.9585 15.6468 87.2223 15.9469C87.4847 16.2469 87.6169 16.6786 87.6169 17.2444V17.28H88.9294V14.2399H88.928ZM78.9027 14.2399H69.7775V15.376H70.2169C70.5333 15.376 70.7374 15.4135 70.8241 15.4841C70.9116 15.5559 70.9556 15.7472 70.9556 16.0588V20.4987C70.9556 20.7937 70.9087 20.9755 70.8149 21.0366C70.7224 21.0989 70.5255 21.1307 70.2297 21.1307H69.7782V22.2667H75.1172V21.1313H74.6216C74.3202 21.1313 74.119 21.0989 74.0272 21.0353C73.9341 20.9698 73.8872 20.7727 73.8872 20.4396V18.6303H74.2491C74.66 18.6303 74.943 18.7149 75.0874 18.8814C75.2338 19.0474 75.3149 19.4104 75.332 19.9704H76.4568V16.3111H75.332V16.3792C75.332 16.8274 75.2502 17.1382 75.0874 17.3143C74.9238 17.4904 74.6387 17.5775 74.2363 17.5775H73.8879V15.376H75.0404C75.7223 15.376 76.1845 15.4186 76.4262 15.5025C76.6665 15.5858 76.8642 15.7294 77.0164 15.931C77.1429 16.1026 77.2389 16.3137 77.3057 16.5654C77.3733 16.814 77.4195 17.1363 77.4465 17.5305H78.9041V14.2399H78.9027Z" fill="#8E8E8E"/>
<path d="M3.65036 14.0002C2.55326 14.0002 1.67089 14.2488 1.00325 14.7428C0.334889 15.238 0 15.8884 0 16.6945C0 17.0696 0.0867441 17.4021 0.258099 17.6958C0.430165 17.9895 0.698219 18.2578 1.05942 18.5013C1.21086 18.6055 1.4583 18.7187 1.80385 18.8401C2.14656 18.9596 2.63787 19.1046 3.27281 19.2762C3.46905 19.3322 3.73924 19.4002 4.0855 19.4822C5.1435 19.7429 5.67249 20.0658 5.67249 20.4517C5.67249 20.7003 5.5502 20.9024 5.30703 21.055C5.06386 21.2089 4.73822 21.2858 4.33507 21.2858C3.66316 21.2858 3.08084 21.1135 2.58668 20.7632C2.0911 20.4142 1.73844 19.9304 1.52442 19.3131H0.227525V22.3036H1.4583L1.79319 21.8586C2.27739 22.076 2.76372 22.24 3.25646 22.3456C3.74706 22.4536 4.2597 22.507 4.79012 22.507C5.95264 22.507 6.87554 22.2661 7.56309 21.7855C8.24638 21.3036 8.5898 20.6596 8.5898 19.8484C8.5898 19.1192 8.31108 18.5445 7.75293 18.1224C7.19692 17.699 6.22567 17.3461 4.84345 17.06C4.70764 17.0333 4.51709 16.9971 4.27535 16.9488C3.27992 16.767 2.78221 16.4968 2.78221 16.1382C2.78221 15.9011 2.91162 15.7008 3.17043 15.5387C3.42924 15.3747 3.75915 15.2927 4.16016 15.2927C4.84487 15.2927 5.39164 15.4332 5.79977 15.7104C6.21002 15.9888 6.48945 16.411 6.63663 16.9787H8.14826V14.191H6.85847L6.61673 14.5966C6.1631 14.3938 5.69454 14.2444 5.21318 14.1446C4.72969 14.0486 4.2078 14.0002 3.65036 14.0002ZM42.3084 14.2399H38.3615V15.376H38.8699C39.1742 15.376 39.3719 15.4109 39.465 15.4764C39.5589 15.5425 39.6065 15.7371 39.6065 16.06V19.6475L36.3031 14.2399H31.8578V15.376H32.2972C32.6179 15.376 32.8255 15.4141 32.9151 15.4904C33.004 15.5661 33.0488 15.7549 33.0488 16.06V20.4409C33.0488 20.7499 33.0019 20.9425 32.9101 21.0169C32.8184 21.0925 32.6136 21.1313 32.2972 21.1313H31.8578V22.2674H35.8182V21.1313H35.4179C35.1065 21.1313 34.9031 21.0925 34.8142 21.0194C34.7247 20.9463 34.6806 20.7524 34.6806 20.4409V16.5159L38.1702 22.2674H41.2504V16.06C41.2504 15.7498 41.2952 15.5559 41.384 15.4841C41.4736 15.4135 41.6741 15.376 41.9891 15.376H42.3069V14.2399H42.3084ZM31.3765 14.2399H26.0382V15.376H26.484C26.8004 15.376 27.0059 15.4141 27.0947 15.4904C27.1836 15.5661 27.2284 15.7549 27.2284 16.06V20.4409C27.2284 20.7499 27.1829 20.9425 27.0912 21.0169C26.9995 21.0925 26.7968 21.1313 26.484 21.1313H26.0382V22.2674H31.3765V21.1313H30.9378C30.6214 21.1313 30.4159 21.0925 30.3242 21.0169C30.2324 20.9425 30.1869 20.7499 30.1869 20.4409V16.06C30.1869 15.7549 30.2317 15.5661 30.3206 15.4904C30.4095 15.4148 30.6178 15.376 30.9385 15.376H31.3772V14.2399H31.3765ZM21.2096 14.2399H15.0288V15.3722H15.4788C15.7974 15.3722 16 15.4084 16.0882 15.4802C16.1756 15.5521 16.2204 15.7434 16.2204 16.0562V20.4396C16.2204 20.7524 16.1756 20.9463 16.0861 21.0194C15.9972 21.0925 15.7938 21.1313 15.4788 21.1313H15.0288V22.2674H20.4339V21.1313H19.9241C19.6141 21.1313 19.4122 21.0925 19.3233 21.0194C19.2344 20.9463 19.1889 20.7524 19.1889 20.4396V18.643H19.9945C20.4965 18.643 20.8264 18.7161 20.985 18.8617C21.1435 19.0073 21.2239 19.3487 21.2239 19.8846V20.5585C21.2239 21.2203 21.4116 21.7016 21.7834 22.0042C22.1553 22.3087 22.7483 22.46 23.5624 22.46C24.3296 22.46 24.8849 22.2909 25.229 21.9559C25.5739 21.6183 25.7466 21.0754 25.7466 20.3284C25.7466 20.2921 25.7438 20.2406 25.7402 20.1682C25.7346 20.0951 25.7331 20.0429 25.7331 20.008H24.823C24.823 20.0391 24.8259 20.0849 24.8301 20.1472C24.8344 20.2108 24.8365 20.254 24.8365 20.2826C24.8365 20.5591 24.8088 20.767 24.7505 20.9037C24.6908 21.0404 24.6005 21.1084 24.4796 21.1084C24.353 21.1084 24.2635 21.0525 24.208 20.9406C24.1547 20.83 24.1284 20.6316 24.1284 20.3424C24.1284 19.3887 24.021 18.7778 23.8049 18.5095C23.588 18.2451 23.1749 18.0772 22.5648 18.0117C23.1699 17.8973 23.6356 17.6888 23.9677 17.3792C24.2976 17.0721 24.4618 16.692 24.4618 16.2412C24.4618 15.5692 24.1924 15.0689 23.6562 14.7377C23.1166 14.4058 22.3025 14.2399 21.2096 14.2399ZM19.1626 17.554V15.4243H20.0471C20.5704 15.4243 20.9331 15.5063 21.14 15.6703C21.3469 15.8331 21.4507 16.1185 21.4507 16.5248C21.4507 16.8935 21.3405 17.1592 21.1137 17.3169C20.8911 17.4733 20.5008 17.554 19.9497 17.554H19.1626ZM14.5467 14.2399H9.20767V15.376H9.65348C9.96917 15.376 10.1747 15.4141 10.265 15.4904C10.3538 15.5661 10.3986 15.7549 10.3986 16.06V20.4409C10.3986 20.7499 10.3517 20.9425 10.2614 21.0169C10.169 21.0925 9.96704 21.1313 9.65419 21.1313H9.20767V22.2674H14.5467V21.1313H14.1073C13.7902 21.1313 13.5861 21.0925 13.4944 21.0169C13.4027 20.9425 13.3565 20.7499 13.3565 20.4409V16.06C13.3565 15.7549 13.4005 15.5661 13.4901 15.4904C13.579 15.4148 13.7859 15.376 14.1073 15.376H14.5467V14.2399Z" fill="#8E8E8E"/>
<path d="M141.539 18.8786H142.487C142.644 19.3287 142.901 19.6828 143.262 19.9378C143.624 20.1908 144.048 20.3192 144.538 20.3192C144.833 20.3192 145.072 20.262 145.249 20.1507C145.427 20.0376 145.516 19.8901 145.516 19.7102C145.516 19.4285 145.13 19.1927 144.357 19.002C144.104 18.9416 143.906 18.8926 143.763 18.8513C143.301 18.7267 142.942 18.6192 142.691 18.5322C142.438 18.4444 142.26 18.3611 142.146 18.2861C141.882 18.1075 141.686 17.9117 141.561 17.6981C141.438 17.4826 141.373 17.2391 141.373 16.9657C141.373 16.3776 141.618 15.9027 142.107 15.5397C142.592 15.1805 143.237 15 144.039 15C144.447 15 144.827 15.035 145.18 15.1043C145.533 15.1761 145.875 15.2861 146.204 15.4348L146.384 15.1386H147.323V17.1742H146.219C146.113 16.7584 145.908 16.4501 145.608 16.2473C145.312 16.0452 144.912 15.9434 144.412 15.9434C144.12 15.9434 143.878 16.0026 143.688 16.1221C143.499 16.2416 143.404 16.3872 143.404 16.5601C143.404 16.8227 143.769 17.0185 144.494 17.1539C144.673 17.1876 144.809 17.2155 144.911 17.2346C145.92 17.4425 146.628 17.7 147.033 18.0096C147.44 18.3173 147.646 18.7381 147.646 19.2702C147.646 19.8602 147.395 20.3319 146.895 20.6848C146.393 21.0344 145.718 21.2105 144.871 21.2105C144.483 21.2105 144.108 21.1698 143.748 21.0916C143.391 21.0153 143.033 20.8958 142.683 20.7375L142.437 21.0605H141.538V18.8786H141.539Z" fill="#8E8E8E"/>
<path d="M158.187 13.6696C155.851 12.5641 153.056 11.8724 150.65 11.7942C148.828 11.7345 147.634 12.0218 146.638 12.4713C149.405 13.1979 151.426 15.4815 151.426 18.1916C151.426 18.2152 151.423 18.2374 151.422 18.2609C151.454 18.2412 151.486 18.2221 151.518 18.2018C154.204 16.5247 156.689 15.0079 158.758 13.9201C158.559 13.8241 158.389 13.765 158.187 13.6696Z" fill="#A7AD6E"/>
<path fill-rule="evenodd" clip-rule="evenodd" d="M144.757 12.2264C145.013 12.2264 145.266 12.2423 145.514 12.2678C145.577 12.2748 145.637 12.2849 145.699 12.2932C145.891 12.3173 146.082 12.3479 146.27 12.3866C146.323 12.3987 146.376 12.4114 146.43 12.4242C146.631 12.4706 146.828 12.5246 147.021 12.5875C147.054 12.5983 147.087 12.6079 147.119 12.6193C147.342 12.695 147.559 12.7802 147.77 12.8755C147.773 12.8768 147.776 12.8774 147.778 12.8787C148.372 12.5227 148.92 12.2258 149.387 12.0135C150.099 11.6886 151.195 11.0325 152.425 10.311C151.624 10.2995 150.765 10.3103 149.832 10.3491C147.387 10.4515 145.593 11.2175 144.309 12.2474C144.457 12.2379 144.606 12.2264 144.757 12.2264Z" fill="#C8A05E"/>
<path fill-rule="evenodd" clip-rule="evenodd" d="M144.757 12.2265C145.846 12.2265 146.87 12.4642 147.778 12.8775C148.019 12.7338 148.248 12.6041 148.472 12.4808C148.754 11.7605 148.946 11.1044 149.04 10.6257C149.054 10.5596 149.065 10.4801 149.078 10.407C147.015 10.6206 145.457 11.3256 144.309 12.2468C144.457 12.2379 144.605 12.2265 144.757 12.2265Z" fill="#C09038"/>
<path d="M148.214 13.0974C148.403 12.6746 148.558 12.2671 148.688 11.887C147.879 12.002 147.224 12.2086 146.639 12.4718C147.199 12.6187 147.726 12.8317 148.214 13.0974Z" fill="#B5943C"/>
<path fill-rule="evenodd" clip-rule="evenodd" d="M147.778 12.8781C148.372 12.5221 148.919 12.2252 149.387 12.0129C149.516 11.9537 149.671 11.8736 149.822 11.7948C148.454 11.8349 147.476 12.0955 146.641 12.4719C147.037 12.5761 147.416 12.7134 147.778 12.8781Z" fill="#B5943C"/>
<path d="M147.779 12.8781C148.019 12.7344 148.248 12.6047 148.472 12.4814C148.553 12.2767 148.624 12.079 148.69 11.887C147.881 12.0014 147.225 12.2086 146.641 12.4718C147.037 12.5755 147.416 12.7134 147.779 12.8781Z" fill="#B7882A"/>
<path fill-rule="evenodd" clip-rule="evenodd" d="M151.889 17.0828C151.657 16.9347 151.427 16.798 151.2 16.6689C151.344 17.1559 151.428 17.6639 151.428 18.1922C151.428 20.8565 149.473 23.1115 146.776 23.8763C147.662 24.2946 148.624 24.5864 150.345 24.5864C152.445 24.5864 156.045 22.8299 158.382 21.7243C158.637 21.6035 158.785 21.5298 159.036 21.4052C156.975 20.2965 154.558 18.7847 151.889 17.0828Z" fill="#A7AD6E"/>
<path d="M151.888 17.0828C151.657 16.9347 151.427 16.798 151.2 16.6689C151.344 17.1559 151.428 17.6639 151.428 18.1922C151.428 18.2157 151.424 18.2379 151.423 18.2615C151.455 18.2418 151.487 18.2227 151.519 18.2023C151.883 17.9747 152.242 17.7522 152.596 17.5323C152.361 17.3841 152.127 17.2348 151.888 17.0828Z" fill="#8C8C67"/>
<path fill-rule="evenodd" clip-rule="evenodd" d="M148.842 22.9285C148.834 22.9241 148.827 22.9196 148.818 22.9152C147.693 23.6901 146.287 24.1555 144.757 24.1555C143.261 24.1555 141.886 23.7105 140.772 22.9673C141.973 25.1669 144.443 27.4308 146.875 28.921C147.718 29.4372 148.664 29.743 149.648 29.9013C149.739 27.8485 149.612 25.8618 149.408 24.8173C149.314 24.3303 149.125 23.6628 148.842 22.9285Z" fill="#F6B131"/>
<path fill-rule="evenodd" clip-rule="evenodd" d="M149.756 23.404C149.47 23.2711 149.156 23.1059 148.819 22.9158C148.01 23.4727 147.058 23.8687 146.016 24.0467C147.131 24.6316 148.51 25.0283 150.201 25.1008C151.134 25.1408 151.993 25.151 152.793 25.1402C151.563 24.4047 150.467 23.7346 149.756 23.404Z" fill="#C8A05E"/>
<path fill-rule="evenodd" clip-rule="evenodd" d="M148.843 22.9285C148.834 22.9241 148.827 22.9196 148.818 22.9152C148.009 23.4721 147.057 23.8681 146.016 24.0461C146.957 24.5388 148.1 24.8859 149.445 25.0296C149.433 24.9591 149.422 24.8815 149.409 24.8173C149.314 24.3303 149.125 23.6628 148.843 22.9285Z" fill="#C09038"/>
<path fill-rule="evenodd" clip-rule="evenodd" d="M149.756 23.404C149.47 23.2711 149.156 23.1059 148.819 22.9158C148.211 23.3341 147.524 23.6647 146.776 23.877C147.662 24.2947 148.624 24.5865 150.345 24.5865C150.725 24.5865 151.151 24.5293 151.607 24.4314C150.87 23.994 150.228 23.6227 149.756 23.404Z" fill="#B5943C"/>
<path fill-rule="evenodd" clip-rule="evenodd" d="M148.819 22.9158C148.211 23.3335 147.525 23.664 146.777 23.8764C147.476 24.2051 148.224 24.4543 149.348 24.5458C149.244 24.0932 149.077 23.5375 148.843 22.9291C148.834 22.9247 148.826 22.9202 148.819 22.9158Z" fill="#B7882A"/>
</svg>
