<svg width="1040" height="711" viewBox="0 0 1040 711" fill="none" xmlns="http://www.w3.org/2000/svg">
<g opacity="0.1">
<path d="M347.599 283.218L342.891 287.538L606.048 529.54L610.757 525.219L347.599 283.218Z" fill="#216628"/>
<path d="M463.525 170.603L38.7178 560.081L43.4212 564.41L468.228 174.932L463.525 170.603Z" fill="#A29393"/>
<path d="M40.9222 572.447C40.9172 577.572 36.3746 581.737 30.7957 581.731C25.2224 581.726 20.6932 577.552 20.6982 572.427C20.7031 567.308 25.2403 563.141 30.8136 563.146C36.3925 563.152 40.9271 567.325 40.9222 572.447ZM49.2235 572.455C49.2325 563.114 40.9935 555.537 30.821 555.528C20.6521 555.518 12.4058 563.078 12.3968 572.419C12.3878 581.762 20.6195 589.342 30.7884 589.352C40.9609 589.362 49.2145 581.798 49.2235 572.455Z" fill="#A29393"/>
<path d="M167.741 404.358L172.451 400.038L380.137 591.192C394.405 604.325 417.674 604.376 432.004 591.301L1078.72 1.39399L1083.42 5.7363L436.696 595.642C419.767 611.082 392.282 611.024 375.426 595.51L167.741 404.358Z" fill="#A29393"/>
<path d="M167.676 392.313C167.671 397.433 163.127 401.599 157.552 401.594C151.98 401.589 147.444 397.413 147.449 392.294C147.454 387.174 151.998 383.007 157.57 383.013C163.147 383.018 167.681 387.193 167.676 392.313ZM175.976 392.321C175.985 382.985 167.748 375.404 157.579 375.394C147.41 375.384 139.164 382.949 139.155 392.286C139.146 401.632 147.377 409.21 157.546 409.22C167.715 409.229 175.967 401.667 175.976 392.321Z" fill="#A29393"/>
<path d="M197.35 571.769C197.345 576.889 192.801 581.055 187.225 581.05C181.654 581.045 177.117 576.869 177.122 571.75C177.127 566.63 181.672 562.463 187.243 562.469C192.82 562.474 197.355 566.649 197.35 571.769ZM205.65 571.777C205.659 562.441 197.421 554.86 187.253 554.85C177.084 554.84 168.837 562.405 168.828 571.742C168.819 581.088 177.051 588.666 187.22 588.676C197.389 588.686 205.641 581.123 205.65 571.777Z" fill="#216628"/>
<path d="M626.076 534.727C626.071 539.852 621.528 544.019 615.951 544.013C610.378 544.008 605.845 539.833 605.85 534.708C605.855 529.588 610.395 525.423 615.969 525.428C621.546 525.434 626.08 529.608 626.076 534.727ZM634.371 534.735C634.38 525.394 626.145 517.818 615.976 517.808C605.811 517.798 597.559 525.359 597.55 534.7C597.541 544.043 605.778 551.624 615.944 551.634C626.112 551.644 634.362 544.078 634.371 534.735Z" fill="#216628"/>
<path d="M221.068 503.537L227.568 497.595L234.036 503.55L227.556 509.509C221.068 503.537 227.556 509.509 221.068 503.537ZM241.853 484.497L248.337 478.555L254.824 484.51L248.325 490.469C241.853 484.497 248.325 490.469 241.853 484.497ZM262.62 465.457L269.1 459.498L275.591 465.47L269.089 471.412C262.62 465.457 269.091 471.412 262.62 465.457ZM283.389 446.4L289.888 440.458L296.358 446.413L289.876 452.372C283.389 446.4 289.876 452.372 283.389 446.4ZM304.173 427.36L310.655 421.418L317.143 427.373L310.643 433.332C304.173 427.36 310.643 433.332 304.173 427.36ZM324.94 408.32L331.442 402.361L337.91 408.333L331.431 414.276C324.94 408.32 331.431 414.276 324.94 408.32ZM345.707 389.264L352.207 383.321L358.696 389.276L352.196 395.235C345.707 389.264 352.196 395.236 345.707 389.264ZM366.495 370.224L372.974 364.264L379.465 370.236L372.963 376.195C366.495 370.224 372.963 376.196 366.495 370.224ZM387.26 351.184L393.76 345.224L400.23 351.196L393.748 357.139C387.26 351.184 393.748 357.139 387.26 351.184ZM408.047 332.127L414.529 326.184L421.016 332.139L414.517 338.099C408.047 332.127 414.517 338.099 408.047 332.127ZM428.813 313.087L435.313 307.127L441.783 313.099L435.301 319.059C428.812 313.087 435.301 319.059 428.813 313.087ZM449.598 294.047L456.078 288.087L462.568 294.059L456.066 300.002C449.598 294.047 456.068 300.002 449.598 294.047ZM470.367 274.99L476.847 269.047L483.335 275.002L476.835 280.962C470.367 274.99 476.835 280.962 470.367 274.99ZM491.134 255.95L497.634 249.99L504.102 255.962L497.623 261.905C491.134 255.95 497.623 261.905 491.134 255.95ZM511.918 236.91L518.399 230.95L524.888 236.922L518.388 242.865C511.918 236.91 518.388 242.865 511.918 236.91ZM532.685 217.853L539.185 211.91L545.655 217.865L539.173 223.825C532.685 217.853 539.173 223.825 532.685 217.853ZM553.454 198.813L559.952 192.853L566.442 198.825L559.94 204.768C553.454 198.813 559.94 204.768 553.454 198.813ZM574.237 179.773L580.719 173.813L587.206 179.785L580.708 185.728C574.237 179.773 580.709 185.728 574.237 179.773ZM595.004 160.716L601.506 154.773L607.975 160.729L601.495 166.688C595.004 160.716 601.495 166.688 595.004 160.716Z" fill="#A29393"/>
<path fill-rule="evenodd" clip-rule="evenodd" d="M519.929 331.95L514.842 336.641L519.92 341.329L525.023 336.651L519.929 331.95ZM503.654 316.928L498.552 321.62L503.645 326.308L508.735 321.63L503.654 316.928ZM487.38 301.907L482.276 306.586L487.371 311.287L492.459 306.596L487.38 301.907ZM471.089 286.873L466.001 291.565C468.384 293.764 468.531 293.9 468.54 293.908C468.54 293.908 468.54 293.908 468.613 293.975L468.789 294.138L471.08 296.253L476.182 291.575L471.089 286.873ZM454.814 271.852L449.711 276.544L454.805 281.232L459.894 276.554L454.814 271.852ZM438.525 256.832L433.437 261.51L438.516 266.211L443.62 261.52L438.525 256.832ZM422.25 241.797L417.146 246.489L422.241 251.177L427.329 246.499L422.25 241.797ZM405.976 226.777L400.871 231.455L405.967 236.156L411.054 231.465L405.976 226.777ZM389.685 211.756L384.596 216.434L389.676 221.136L394.779 216.444L389.685 211.756ZM373.41 196.722L368.308 201.413L373.401 206.101L378.489 201.423L373.41 196.722ZM357.12 181.701L352.031 186.379C357.111 191.081 352.031 186.379 357.111 191.081L362.214 186.389L357.12 181.701ZM340.846 166.68L335.742 171.358L340.837 176.06L345.939 171.368L340.846 166.68ZM324.57 151.646L319.467 156.337L324.561 161.026L329.648 156.347L324.57 151.646ZM308.28 136.625L303.193 141.303L308.271 146.005L313.374 141.313L308.28 136.625Z" fill="#A29393"/>
<path fill-rule="evenodd" clip-rule="evenodd" d="M332.403 336.105L327.394 340.71L332.394 345.314L337.419 340.72L332.403 336.105ZM316.377 321.354L311.354 325.961L316.368 330.564L321.38 325.97L316.377 321.354ZM300.353 306.604L295.327 311.198L300.344 315.814L305.353 311.207L300.353 306.604ZM284.312 291.841L279.301 296.448L279.393 296.533C281.788 298.736 281.803 298.75 281.803 298.75C281.802 298.75 281.787 298.736 284.303 301.051L289.326 296.458L284.312 291.841ZM268.286 277.091L263.261 281.698L268.277 286.302L273.288 281.708L268.286 277.091ZM252.246 262.341L247.237 266.935L252.237 271.552L257.264 266.945L252.246 262.341ZM236.221 247.578L231.196 252.185L236.212 256.789L241.222 252.195L236.221 247.578ZM220.196 232.829L215.17 237.422L220.187 242.039L225.197 237.432L220.196 232.829ZM204.155 218.079L199.144 222.673L204.146 227.289L209.171 222.682L204.155 218.079ZM188.129 203.316L183.106 207.923L188.121 212.526L193.131 207.932L188.129 203.316ZM172.09 188.566L167.079 193.16L172.081 197.777L177.106 193.17L172.09 188.566ZM156.065 173.816L151.039 178.41L156.056 183.027L161.08 178.42L156.065 173.816Z" fill="#216628"/>
<path fill-rule="evenodd" clip-rule="evenodd" d="M11.6585 362.681C4.30426 369.425 0.24946 378.427 0.240204 388.034C0.230947 397.642 4.26697 406.652 11.6096 413.41L175.241 564.013L178.882 560.675L15.2505 410.07C8.88275 404.205 5.37738 396.384 5.38543 388.039C5.39347 379.694 8.9139 371.88 15.2929 366.027L267.994 132.577L263.994 128.865L11.6585 362.681Z" fill="#216628"/>
</g>
<g opacity="0.1">
<path d="M905.112 265.34L921.846 458.08C922.911 469.248 929.051 479.383 938.85 485.046L1086.85 572.094C1086.85 572.094 1093.91 563.251 1108.11 555.09" stroke="#216628" stroke-width="5" stroke-miterlimit="10" stroke-linejoin="round"/>
<path d="M1068.65 598.338L918.734 508.323C911.524 504.108 903.171 502.181 895.074 502.953L867.277 505.602" stroke="#A29393" stroke-width="5" stroke-miterlimit="10" stroke-linejoin="round" stroke-dasharray="5 5"/>
<path d="M957.537 558.273L1056.63 615.006C1056.63 615.006 1040.26 643.256 1045.01 693.184" stroke="#A29393" stroke-width="5" stroke-miterlimit="10" stroke-linejoin="round"/>
<path d="M870.684 504.19C870.002 497.035 863.649 491.788 856.495 492.47C849.34 493.152 844.093 499.505 844.775 506.659C845.457 513.813 851.81 519.061 858.964 518.379C866.118 517.697 871.365 511.344 870.684 504.19Z" stroke="#A29393" stroke-width="5" stroke-miterlimit="10" stroke-linejoin="round"/>
<path d="M916.856 251.42C916.174 244.266 909.821 239.019 902.667 239.701C895.512 240.383 890.265 246.735 890.947 253.89C891.629 261.044 897.981 266.291 905.136 265.609C912.29 264.927 917.537 258.575 916.856 251.42Z" stroke="#216628" stroke-width="5" stroke-miterlimit="10" stroke-linejoin="round"/>
</g>
</svg>
