<svg width="165" height="63" viewBox="0 0 165 63" fill="none" xmlns="http://www.w3.org/2000/svg">
<path d="M141.241 21.9915C143.306 21.7014 145.159 22.7498 145.827 23.3102C145.66 22.9411 145.199 22.0425 144.682 21.4007C144.164 20.759 143.522 20.1919 143.265 19.9885C143.304 19.7486 143.257 19.461 142.826 18.9262C142.395 18.3914 141.792 17.7865 139.878 17.3095C137.964 16.8324 137.446 17.1474 137.001 16.5957C136.557 16.044 136.842 15.2294 136.941 15.1031C136.627 15.4801 135.993 17.1682 137.634 18.0488C138.179 18.3417 139.815 18.6498 140.714 19.1325C141.433 19.5187 141.59 19.76 141.486 19.937C140.252 19.3838 137.327 18.2741 135.5 18.2611C133.672 18.2481 131.886 19.4711 131.221 20.0842C131.83 20.0731 133.469 20.2043 135.15 20.818C136.831 21.4317 137.882 22.2529 138.198 22.5868C138.352 22.5092 139.176 22.2816 141.241 21.9915Z" fill="white"/>
<path fill-rule="evenodd" clip-rule="evenodd" d="M83.9254 20.1463C102.106 10.6968 108.509 28.1207 138.581 24.6985C112.806 32.5676 103.826 13.0112 83.9254 20.1463Z" fill="white"/>
<path fill-rule="evenodd" clip-rule="evenodd" d="M75.5342 25.0853C96.9662 11.1662 104.413 30.8818 134.355 27.1114C129.957 28.497 125.91 29.0821 122.125 29.146C90.6454 41.8048 70.3816 19.4669 19.3554 29.93C59.4575 16.9285 90.5562 34.6233 113.881 28.5076C99.9544 26.2121 89.1704 18.8838 75.5342 25.0853L75.5342 25.0853Z" fill="white"/>
<path fill-rule="evenodd" clip-rule="evenodd" d="M107.142 0.104492C104.47 22.9246 124.503 21.9222 137.265 24.281C121.494 16.0132 110.467 19.9171 107.142 0.104492Z" fill="white"/>
<path fill-rule="evenodd" clip-rule="evenodd" d="M102.097 0.0145804C95.8743 22.469 122.444 23.0952 124.668 24.211C114.936 18.762 102.093 20.2731 102.097 0.0145804Z" fill="white"/>
<path d="M63.5496 51.3196C63.5496 51.8568 63.7571 52.3573 64.1722 52.8212C64.5994 53.2728 65.1122 53.6757 65.7103 54.0297C66.3207 54.3715 66.9249 54.7255 67.5231 55.0917C68.1213 55.4457 68.6279 55.8852 69.0429 56.4101C69.4702 56.935 69.6838 57.5149 69.6838 58.1497C69.6838 59.1507 69.3115 59.9686 68.5668 60.6034C67.8344 61.2381 66.8395 61.5555 65.5821 61.5555C64.3248 61.5555 63.0796 61.3175 61.8467 60.8414V59.9808C63.0918 60.6034 64.1478 60.9146 65.0145 60.9146C65.8934 60.9146 66.577 60.701 67.0653 60.2738C67.5536 59.8465 67.7978 59.2544 67.7978 58.4976C67.7978 57.9849 67.5964 57.521 67.1935 57.1059C66.7907 56.6787 66.3024 56.3125 65.7286 56.0073C65.1549 55.6899 64.5811 55.3664 64.0074 55.0368C63.4336 54.7072 62.9453 54.2921 62.5425 53.7916C62.1397 53.2789 61.9382 52.6625 61.9382 51.9422C61.9382 51.222 62.2556 50.5506 62.8904 49.928C63.5374 49.3054 64.4957 48.9941 65.7652 48.9941C66.5953 48.9941 67.6452 49.1834 68.9147 49.5618L68.7316 50.8069C67.0836 50.0989 65.6737 49.7449 64.5018 49.7449C63.867 50.0501 63.5496 50.575 63.5496 51.3196Z" fill="white"/>
<path d="M80.0234 48.9941C81.6104 48.9941 82.9227 49.5191 83.9603 50.5689C84.9979 51.6065 85.5167 53.0531 85.5167 54.9086C85.5167 56.1049 85.3092 57.1548 84.8941 58.0581C84.4791 58.9493 83.9359 59.639 83.2645 60.1273C81.9583 61.0794 80.5178 61.5555 78.9431 61.5555C77.3683 61.5555 76.0621 61.0306 75.0245 59.9808C73.9991 58.9187 73.4864 57.46 73.4864 55.6044C73.4864 54.6401 73.6206 53.7733 73.8892 53.0043C74.17 52.223 74.5301 51.5882 74.9696 51.0999C75.4212 50.6116 75.94 50.2027 76.526 49.8731C77.6002 49.2871 78.7661 48.9941 80.0234 48.9941ZM76.3429 59.2483C76.6603 59.7855 77.0875 60.2066 77.6247 60.5118C78.1618 60.8048 78.7783 60.9513 79.4741 60.9513C80.1821 60.9513 80.8108 60.7743 81.3601 60.4202C81.9094 60.0662 82.3367 59.6024 82.6419 59.0286C83.2645 57.8811 83.5758 56.6482 83.5758 55.3298C83.5758 53.7062 83.2523 52.4 82.6053 51.4112C81.885 50.3003 80.6948 49.7449 79.0346 49.7449C77.8505 50.1599 76.9533 50.8741 76.3429 51.8873C75.7325 52.9005 75.4273 54.048 75.4273 55.3298C75.4273 56.8923 75.7325 58.1985 76.3429 59.2483Z" fill="white"/>
<path d="M91.6621 54.6339H95.544V55.3298H91.6621V61.3358H89.8859V49.2139H97.0455V50.4407L93.658 49.8731C93.0476 49.8731 92.3823 49.9768 91.6621 50.1844V54.6339Z" fill="white"/>
<path d="M104.946 61.3358H103.17V50.0928C102.755 49.9951 102.339 49.9463 101.924 49.9463L99.4524 50.514L99.3426 49.2139H108.773L108.681 50.514L106.191 49.9463C105.776 49.9463 105.361 49.9951 104.946 50.0928V61.3358Z" fill="white"/>
<path d="M125.64 49.2139H126.556L122.015 61.6105H121.722L118.92 54.1029L116.173 61.6105H115.88L111.248 49.2139H113.244L116.466 59.1385L118.517 53.0226L117.089 49.2139H119.085L122.308 59.1385L125.64 49.2139Z" fill="white"/>
<path d="M128.678 61.3358L134.117 48.9209H134.391L139.83 61.3358H137.834L136.46 58.0398H131.022L129.667 61.3358H128.678ZM131.297 57.344H136.167L133.75 51.4112L131.297 57.344Z" fill="white"/>
<path d="M145.559 55.5495V61.3358H143.765V49.2139H147.72C148.953 49.2139 149.96 49.4885 150.741 50.0379C151.535 50.5872 151.932 51.3135 151.932 52.2169C151.932 53.108 151.614 53.8161 150.979 54.341C150.357 54.8537 149.508 55.2077 148.434 55.403L153.341 61.3358L151.217 61.5922L146.969 55.5495H145.559ZM145.559 55.0002H146.731C148.929 55.0002 150.027 54.1334 150.027 52.4C150.027 52.107 149.954 51.7774 149.807 51.4112C149.527 50.6421 148.928 50.1355 148.013 49.8914C147.183 49.8914 146.365 49.9951 145.559 50.2027V55.0002Z" fill="white"/>
<path d="M157.547 61.3358V49.2139H164.89L164.707 50.4407L161.301 49.8731C160.703 49.8731 160.044 49.9768 159.324 50.1844V54.6339H163.389V55.3298H159.324V60.6766L165 60.109L164.817 61.3358H157.547Z" fill="white"/>
<path d="M2.20757 51.3196C2.20757 51.8568 2.41509 52.3573 2.83014 52.8212C3.2574 53.2728 3.77011 53.6757 4.36827 54.0297C4.97864 54.3715 5.58291 54.7255 6.18107 55.0917C6.77923 55.4457 7.28584 55.8852 7.70089 56.4101C8.12815 56.935 8.34177 57.5149 8.34177 58.1497C8.34177 59.1507 7.96945 59.9686 7.2248 60.6034C6.49236 61.2381 5.49746 61.5555 4.2401 61.5555C2.98274 61.5555 1.73758 61.3175 0.504639 60.8414V59.9808C1.74979 60.6034 2.80573 60.9146 3.67245 60.9146C4.55138 60.9146 5.235 60.701 5.72329 60.2738C6.21159 59.8465 6.45573 59.2544 6.45573 58.4976C6.45573 57.9849 6.25431 57.521 5.85147 57.1059C5.44863 56.6787 4.96033 56.3125 4.38658 56.0073C3.81284 55.6899 3.23909 55.3664 2.66534 55.0368C2.0916 54.7072 1.6033 54.2921 1.20046 53.7916C0.797616 53.2789 0.596194 52.6625 0.596194 51.9422C0.596194 51.222 0.913586 50.5506 1.54837 49.928C2.19536 49.3054 3.15364 48.9941 4.42321 48.9941C5.25331 48.9941 6.30314 49.1834 7.57271 49.5618L7.3896 50.8069C5.7416 50.0989 4.33165 49.7449 3.15974 49.7449C2.52496 50.0501 2.20757 50.575 2.20757 51.3196Z" fill="white"/>
<path d="M15.2206 49.2139V61.3358H13.536V49.2139H15.2206Z" fill="white"/>
<path d="M22.7915 55.5495V61.3358H20.997V49.2139H24.9522C26.1851 49.2139 27.1923 49.4885 27.9735 50.0379C28.767 50.5872 29.1637 51.3135 29.1637 52.2169C29.1637 53.108 28.8463 53.8161 28.2116 54.341C27.589 54.8537 26.7406 55.2077 25.6663 55.403L30.5737 61.3358L28.4496 61.5922L24.2014 55.5495H22.7915ZM22.7915 55.0002H23.9634C26.1607 55.0002 27.2594 54.1334 27.2594 52.4C27.2594 52.107 27.1861 51.7774 27.0397 51.4112C26.7589 50.6421 26.1607 50.1355 25.2452 49.8914C24.4151 49.8914 23.5972 49.9951 22.7915 50.2027V55.0002Z" fill="white"/>
<path d="M36.8305 49.2139V61.3358H35.1459V49.2139H36.8305Z" fill="white"/>
<path d="M51.8174 61.5372H51.5061L43.4859 51.5028H43.4126V61.3358H42.6069V49.2139H43.9619L50.9385 58.0215H51.0117V49.2139H51.8174V61.5372Z" fill="white"/>
<path fill-rule="evenodd" clip-rule="evenodd" d="M6.90882 50.6104C5.46571 50.0351 4.216 49.7475 3.15969 49.7475C2.52491 50.0527 2.20752 50.5776 2.20752 51.3223C2.20752 51.8594 2.41504 52.3599 2.83009 52.8238C3.25735 53.2755 3.77006 53.6783 4.36822 54.0323C4.97859 54.3741 5.58285 54.7281 6.18102 55.0944C6.77918 55.4484 7.28578 55.8878 7.70083 56.4128C8.12809 56.9377 8.34172 57.5175 8.34172 58.1523C8.34172 59.1533 7.9694 59.9712 7.22475 60.606C6.4923 61.2408 5.4974 61.5582 4.24004 61.5582C2.98268 61.5582 1.73753 61.3201 0.504587 60.844V59.9834C0.676385 60.0693 0.844581 60.1493 1.00917 60.2233C2.03752 60.686 2.92526 60.9173 3.6724 60.9173C4.55133 60.9173 5.23494 60.7036 5.72324 60.2764C6.21153 59.8491 6.45568 59.2571 6.45568 58.5002C6.45568 57.9875 6.25426 57.5236 5.85142 57.1086C5.44857 56.6813 4.96028 56.3151 4.38653 56.0099C3.81279 55.6925 3.23904 55.369 2.66529 55.0394C2.09155 54.7098 1.60325 54.2948 1.20041 53.7943C0.797564 53.2816 0.596142 52.6651 0.596142 51.9449C0.596142 51.2246 0.913534 50.5532 1.54832 49.9306C2.19531 49.3081 3.15359 48.9968 4.42315 48.9968C5.25325 48.9968 6.30309 49.186 7.57266 49.5644L7.38955 50.8096C7.22699 50.7397 7.06675 50.6733 6.90882 50.6104ZM6.44131 54.6621C7.08823 55.0455 7.64066 55.5238 8.09444 56.097C8.58825 56.7048 8.84631 57.3946 8.84631 58.1523C8.84631 59.2965 8.41267 60.2556 7.55367 60.9886C6.7052 61.7232 5.58113 62.0627 4.24004 62.0627C2.91739 62.0627 1.61075 61.8121 0.322826 61.3147L0 61.1901V59.167L0.730245 59.5321C1.94317 60.1386 2.91751 60.4127 3.6724 60.4127C4.47277 60.4127 5.02291 60.2187 5.39097 59.8966C5.75112 59.5815 5.95109 59.1383 5.95109 58.5002C5.95109 58.1359 5.8135 57.794 5.48934 57.46L5.48679 57.4574L5.48428 57.4547C5.12293 57.0715 4.67995 56.7375 4.14957 56.4554L4.14591 56.4534L4.14228 56.4514C3.56614 56.1327 2.99002 55.8079 2.41394 55.477C1.78749 55.1171 1.25066 54.6615 0.807328 54.1107L0.803614 54.106C0.323549 53.495 0.0915552 52.7656 0.0915552 51.9449C0.0915552 51.0587 0.4876 50.2642 1.195 49.5704L1.19843 49.567C1.97238 48.8223 3.07741 48.4922 4.42315 48.4922C5.32221 48.4922 6.42476 48.6957 7.71679 49.0809L8.13543 49.2056L7.79329 51.5322L7.19036 51.2732C5.63509 50.605 4.33619 50.2769 3.28047 50.2535C3.09238 50.3605 2.96387 50.4881 2.87735 50.6312C2.77554 50.7996 2.7121 51.0223 2.7121 51.3223C2.7121 51.714 2.85857 52.0969 3.20157 52.4822C3.59088 52.8927 4.06225 53.2643 4.62012 53.5951C5.23331 53.9385 5.84037 54.2942 6.44131 54.6621ZM15.7251 48.7119V61.843H13.0313V48.7119H15.7251ZM28.4496 61.5948L24.2014 55.5521H22.7914V61.3384H20.997V49.2165H24.9521C26.1851 49.2165 27.1922 49.4912 27.9735 50.0405C28.7669 50.5898 29.1637 51.3162 29.1637 52.2195C29.1637 53.1107 28.8463 53.8187 28.2115 54.3436C27.7004 54.7645 27.0371 55.0784 26.2217 55.2854C26.0438 55.3306 25.8587 55.3707 25.6663 55.4056L30.5736 61.3384L28.4496 61.5948ZM26.575 55.7126L31.5513 61.7287L28.2104 62.1319L23.9393 56.0567H23.296V61.843H20.4924V48.7119H24.9521C26.2581 48.7119 27.3745 49.0031 28.2622 49.6267C29.1798 50.2626 29.6683 51.1383 29.6683 52.2195C29.6683 53.247 29.2942 54.1031 28.5331 54.7325L28.5323 54.7331C28.0027 55.1692 27.3453 55.4917 26.575 55.7126ZM26.5683 51.5941L26.5656 51.5869C26.3566 51.0143 25.9244 50.613 25.1776 50.3988C24.5428 50.4034 23.9158 50.4719 23.296 50.6046V54.4982H23.9633C25.0093 54.4982 25.7007 54.2896 26.1228 53.9566C26.5222 53.6416 26.7547 53.1555 26.7547 52.4026C26.7547 52.1919 26.7015 51.9273 26.5711 51.6012L26.5683 51.5941ZM22.7914 55.0028V50.2053C23.5971 49.9978 24.415 49.894 25.2451 49.894C26.1607 50.1382 26.7588 50.6448 27.0396 51.4138C27.1861 51.7801 27.2593 52.1097 27.2593 52.4026C27.2593 54.1361 26.1607 55.0028 23.9633 55.0028H22.7914ZM37.335 48.7119V61.843H34.6412V48.7119H37.335ZM52.3219 62.0444H51.2634L43.9171 52.8532V61.843H42.1023V48.7119H44.2059L50.5071 56.6669V48.7119H52.3219V62.0444ZM51.0116 58.0241H50.9384L43.9619 49.2165H42.6069V61.3384H43.4125V51.5054H43.4858L51.506 61.5399H51.8173V49.2165H51.0116V58.0241ZM15.2205 61.3384H13.5359V49.2165H15.2205V61.3384ZM36.8304 61.3384H35.1458V49.2165H36.8304V61.3384Z" fill="white"/>
</svg>
