<svg width="165" height="36" viewBox="0 0 165 36" fill="none" xmlns="http://www.w3.org/2000/svg">
<path d="M150.651 11.7942C148.828 11.7967 147.634 12.0218 146.638 12.4713C149.406 13.1979 151.427 15.4815 151.427 18.1916C151.427 20.856 149.473 23.1109 146.776 23.8757C147.662 24.2941 148.623 24.6157 150.344 24.5859C153.788 24.5261 163.742 19.2253 165 17.5928C164.084 16.5304 156.212 11.7859 150.651 11.7942Z" fill="#D1DE84"/>
<path fill-rule="evenodd" clip-rule="evenodd" d="M149.755 23.404C149.47 23.2711 149.156 23.1059 148.819 22.9158C147.693 23.6907 146.287 24.1561 144.757 24.1561C143.261 24.1561 141.886 23.7111 140.772 22.9679C141.973 25.1676 144.443 27.4314 146.875 28.9216C151.571 31.7996 159.484 28.2146 159.484 28.2146C156.9 28.0252 151.783 24.3468 149.755 23.404Z" fill="#F9CB74"/>
<path fill-rule="evenodd" clip-rule="evenodd" d="M148.835 22.9049C147.706 23.6862 146.295 24.156 144.758 24.156C142.489 24.156 140.487 23.1414 139.282 21.594C139.602 23.2749 140.814 25.4637 143.185 28.1669C148.935 34.7239 148.407 35.6673 148.407 35.6673C149.936 33.2146 149.832 26.9882 149.41 24.8184C149.314 24.3251 149.122 23.6481 148.835 22.9049Z" fill="#F9CB74"/>
<path fill-rule="evenodd" clip-rule="evenodd" d="M139.323 14.7389C139.363 14.6887 139.405 14.6397 139.447 14.5902C139.576 14.4395 139.712 14.2939 139.855 14.154C139.896 14.1159 139.933 14.0752 139.974 14.0371C140.158 13.868 140.352 13.7078 140.557 13.559C140.593 13.5329 140.631 13.5107 140.666 13.4859C140.84 13.3651 141.021 13.2519 141.209 13.1464C141.273 13.1108 141.337 13.0758 141.401 13.0421C141.593 12.9417 141.792 12.8489 141.996 12.7656C142.038 12.7491 142.075 12.7294 142.117 12.7135C142.361 12.6194 142.613 12.5399 142.871 12.4725C142.936 12.4554 143.004 12.442 143.069 12.4267C143.272 12.3797 143.477 12.3403 143.687 12.3104C143.765 12.299 143.842 12.2875 143.921 12.278C144.196 12.2475 144.473 12.2265 144.757 12.2265C145.044 12.2265 145.327 12.2481 145.605 12.2799C145.672 12.2882 145.737 12.2971 145.802 12.3072C146.047 12.3416 146.287 12.3867 146.523 12.4445C146.55 12.4515 146.578 12.4573 146.605 12.4636C147.178 12.6111 147.715 12.826 148.213 13.0968C148.642 12.1388 148.918 11.2379 149.039 10.6257C149.461 8.50043 149.566 2.40181 148.037 0C148.037 0 148.565 0.92309 142.814 7.34594C139.607 10.927 138.519 13.5882 138.896 15.3384C139.024 15.1299 139.169 14.9315 139.323 14.7389Z" fill="#F9CB74"/>
<path fill-rule="evenodd" clip-rule="evenodd" d="M144.757 12.2265C145.846 12.2265 146.87 12.4643 147.778 12.8775C148.372 12.5215 148.919 12.2246 149.387 12.0123C151.414 11.0879 156.531 7.48395 159.116 7.29959C159.116 7.29959 151.203 3.78905 146.509 6.606C143.363 8.49477 140.151 11.6487 139.711 14.2965C140.934 13.0308 142.738 12.2265 144.757 12.2265Z" fill="#F9CB74"/>
<path fill-rule="evenodd" clip-rule="evenodd" d="M144.758 12.2265C145.846 12.2265 146.871 12.4642 147.779 12.8775C148.019 12.7338 148.248 12.6041 148.472 12.4808C148.754 11.7605 148.946 11.1044 149.041 10.6257C149.244 9.6028 149.372 7.65617 149.281 5.64661C148.296 5.80173 147.351 6.10116 146.509 6.60593C143.363 8.49471 140.151 11.6486 139.711 14.2964C140.935 13.0307 142.739 12.2265 144.758 12.2265Z" fill="#F6B131"/>
<path fill-rule="evenodd" clip-rule="evenodd" d="M149.831 10.3485C147.386 10.4508 145.592 11.2169 144.308 12.2468C144.457 12.2373 144.606 12.2265 144.757 12.2265C148.441 12.2265 151.428 14.8965 151.428 18.1916C151.428 18.2151 151.424 18.2373 151.423 18.2609C151.455 18.2412 151.487 18.2221 151.519 18.2017C156.847 14.8762 161.174 12.2888 163.653 12.1038C160.406 11.5926 157.533 10.0255 149.831 10.3485Z" fill="#C9C4C0"/>
<path fill-rule="evenodd" clip-rule="evenodd" d="M151.889 17.0828C151.657 16.9347 151.427 16.798 151.2 16.6689C151.344 17.1559 151.428 17.6639 151.428 18.1922C151.428 21.1013 149.098 23.5203 146.016 24.0473C147.131 24.6322 148.51 25.0289 150.201 25.1014C157.902 25.4319 160.776 23.8324 164.022 23.3099C161.543 23.1204 157.216 20.4796 151.889 17.0828Z" fill="#C9C4C0"/>
<path d="M63.9272 13.8616C62.2997 13.8616 61.0234 14.2392 60.0998 14.9951C59.1755 15.7503 58.7141 16.793 58.7141 18.1216C58.7141 19.4402 59.1755 20.4796 60.0963 21.2355C61.0192 21.9914 62.2876 22.3677 63.9024 22.3677C65.5363 22.3677 66.8161 21.9914 67.739 21.2399C68.6626 20.4879 69.1248 19.4491 69.1248 18.1216C69.1248 16.793 68.6626 15.7497 67.7404 14.9951C66.8204 14.2386 65.5505 13.8616 63.9272 13.8616ZM63.9201 21.1478C63.3172 21.1478 62.8799 20.9081 62.6055 20.43C62.3296 19.9494 62.1924 19.1719 62.1924 18.0981C62.1924 17.0428 62.3296 16.2755 62.6076 15.7987C62.8842 15.3219 63.3257 15.0822 63.9308 15.0822C64.5337 15.0822 64.971 15.3244 65.2455 15.8063C65.5213 16.292 65.6586 17.0657 65.6586 18.1331C65.6586 19.1922 65.5213 19.9596 65.2455 20.4338C64.9717 20.9106 64.5302 21.1478 63.9201 21.1478ZM52.9968 13.8616C51.8997 13.8616 51.0152 14.1101 50.349 14.6041C49.6792 15.0994 49.3457 15.7503 49.3457 16.5558C49.3457 16.9309 49.4332 17.2634 49.6045 17.5571C49.7752 17.8508 50.0432 18.1191 50.4044 18.3626C50.5566 18.4668 50.804 18.58 51.151 18.7014C51.493 18.821 51.9843 18.9659 52.6185 19.1376C52.8155 19.1935 53.0835 19.2615 53.4312 19.3435C54.4899 19.6042 55.0189 19.9271 55.0189 20.313C55.0189 20.5616 54.8959 20.7638 54.6527 20.9163C54.4096 21.0702 54.0846 21.1471 53.6794 21.1471C53.0089 21.1471 52.428 20.9748 51.9324 20.6245C51.4375 20.2755 51.0848 19.7917 50.8708 19.1744H49.5725V22.1649H50.8033L51.1375 21.7199C51.6224 21.9373 52.1087 22.1014 52.6007 22.2069C53.0921 22.315 53.6047 22.3684 54.1358 22.3684C55.299 22.3684 56.2212 22.1274 56.9081 21.6468C57.5914 21.1649 57.9355 20.5209 57.9355 19.7097C57.9355 18.9805 57.6554 18.4058 57.0986 17.9837C56.5412 17.5603 55.5707 17.2075 54.1884 16.9214C54.0519 16.8947 53.8628 16.8584 53.6189 16.8101C52.6256 16.6283 52.1286 16.3581 52.1286 15.9996C52.1286 15.7624 52.2566 15.5622 52.5161 15.4001C52.7742 15.236 53.1048 15.154 53.5059 15.154C54.1906 15.154 54.7366 15.2945 55.1455 15.5717C55.555 15.8502 55.8344 16.2723 55.9816 16.84H57.494V14.0523H56.2056L55.9617 14.4579C55.5102 14.2551 55.041 14.1057 54.5603 14.0059C54.0761 13.9099 53.5549 13.8616 52.9968 13.8616ZM131.754 14.1012H122.332V15.2373H122.771C123.087 15.2373 123.29 15.2748 123.378 15.3454C123.464 15.4172 123.509 15.6086 123.509 15.9201V20.3601C123.509 20.6551 123.464 20.8369 123.37 20.8979C123.274 20.9602 123.08 20.992 122.782 20.992H122.333V22.1281H131.805V18.814H130.333C130.307 19.231 130.254 19.5775 130.172 19.8534C130.092 20.1293 129.981 20.3613 129.843 20.554C129.716 20.7129 129.535 20.8273 129.304 20.8928C129.069 20.9589 128.645 20.992 128.03 20.992H126.439V18.491H126.799C127.214 18.491 127.495 18.5756 127.64 18.7421C127.787 18.9081 127.867 19.2711 127.887 19.8311H129.01V16.1718H127.887V16.2399C127.887 16.6881 127.802 16.9989 127.64 17.175C127.477 17.3511 127.191 17.4382 126.785 17.4382H126.44V15.2367H127.859C128.405 15.2367 128.8 15.2691 129.045 15.3333C129.288 15.3969 129.495 15.505 129.667 15.6575C129.814 15.7891 129.938 15.964 130.042 16.1826C130.145 16.4001 130.242 16.7027 130.333 17.0918H131.755V14.1012H131.754ZM117.557 14.1012H111.376V15.2335H111.827C112.146 15.2335 112.348 15.2697 112.434 15.3416C112.522 15.4134 112.567 15.6048 112.567 15.9175V20.3009C112.567 20.6137 112.522 20.8076 112.433 20.8807C112.344 20.9539 112.141 20.9926 111.827 20.9926H111.751V22.1287H116.782V20.9926H116.271C115.961 20.9926 115.76 20.9539 115.67 20.8807C115.581 20.8076 115.536 20.6137 115.536 20.3009V18.5044H116.343C116.843 18.5044 117.174 18.5775 117.333 18.7231C117.491 18.8686 117.571 19.21 117.571 19.746V20.4198C117.571 21.0816 117.759 21.5629 118.132 21.8655C118.501 22.17 119.096 22.3213 119.911 22.3213C120.677 22.3213 121.233 22.1522 121.578 21.8172C121.922 21.4796 122.094 20.9367 122.094 20.1897C122.094 20.1535 122.093 20.102 122.088 20.0295C122.083 19.9564 122.081 19.9043 122.081 19.8693H121.171C121.171 19.9004 121.173 19.9462 121.177 20.0085C121.182 20.0721 121.185 20.1153 121.185 20.1439C121.185 20.4205 121.156 20.6284 121.098 20.765C121.038 20.9017 120.949 20.9697 120.828 20.9697C120.701 20.9697 120.611 20.9138 120.556 20.8019C120.503 20.6913 120.475 20.4929 120.475 20.2037C120.475 19.2501 120.369 18.6391 120.152 18.3709C119.936 18.1064 119.524 17.9386 118.912 17.8731C119.517 17.7586 119.982 17.5501 120.314 17.2405C120.645 16.9335 120.811 16.5533 120.811 16.1025C120.811 15.4306 120.541 14.9302 120.004 14.599C119.464 14.2672 118.649 14.1012 117.557 14.1012ZM115.509 17.4153V15.2856H116.394C116.917 15.2856 117.281 15.3676 117.488 15.5317C117.696 15.6944 117.798 15.9798 117.798 16.3861C117.798 16.7548 117.687 17.0205 117.46 17.1782C117.238 17.3346 116.848 17.4153 116.298 17.4153H115.509ZM108.214 14.1012H104.968L102.606 20.1668C102.493 20.4599 102.358 20.6697 102.203 20.7987C102.051 20.9291 101.859 20.9926 101.632 20.9926H101.299V22.1287H105.313V20.9926H104.87C104.669 20.9926 104.514 20.9729 104.407 20.9341C104.297 20.896 104.243 20.8407 104.243 20.7689C104.243 20.7142 104.251 20.6551 104.27 20.5877C104.285 20.5215 104.319 20.43 104.368 20.313L104.647 19.5451H107.065L107.385 20.4058C107.403 20.4618 107.416 20.5152 107.427 20.5737C107.439 20.6296 107.442 20.6881 107.442 20.7523C107.442 20.8451 107.406 20.9074 107.33 20.9424C107.254 20.9761 107.046 20.992 106.706 20.992H106.302V22.1281H111.376V20.9926H111.28C111.019 20.9926 110.828 20.9507 110.71 20.8668C110.591 20.7828 110.463 20.5419 110.318 20.1433L108.214 14.1012ZM105.06 18.3963L105.825 15.9652L106.641 18.3963H105.06ZM102.537 14.1012H99.1119V15.2373C99.4234 15.2373 99.6246 15.2596 99.7163 15.3022C99.8094 15.3454 99.8578 15.4261 99.8578 15.5418L99.8436 15.6779C99.8336 15.7268 99.8237 15.7802 99.8059 15.84L98.6569 19.9163L97.5491 15.8508C97.5271 15.7764 97.5128 15.7192 97.505 15.6734L97.4944 15.5418C97.4944 15.4299 97.5377 15.3505 97.628 15.306C97.7176 15.2602 97.8954 15.2379 98.1606 15.2379H98.4564V14.1012H94.026V15.2373C94.3965 15.2462 94.6581 15.3091 94.8124 15.4274C94.9639 15.5469 95.0733 15.7777 95.1381 16.1254L94.0985 19.9163L92.8223 15.8508L92.781 15.7014L92.7689 15.5418C92.7689 15.4337 92.8116 15.3556 92.8962 15.3085C92.9808 15.2627 93.1252 15.2379 93.3299 15.2379V14.1012H89.1684V15.2373C89.457 15.2462 89.6867 15.3269 89.863 15.477C90.0365 15.6283 90.1794 15.8807 90.2932 16.231L92.1425 22.1287H95.0179L95.9259 18.8655L96.8089 22.1287H99.6601L101.53 16.0161C101.622 15.7268 101.739 15.5247 101.889 15.409C102.036 15.2958 102.253 15.2379 102.535 15.2379V14.1012H102.537ZM88.928 14.1012H79.4807V17.1407H80.8047V17.1051C80.8047 16.5355 80.9362 16.1025 81.1986 15.8044C81.4595 15.5075 81.8356 15.3568 82.3277 15.3568H82.7187V20.3016C82.7187 20.6334 82.6718 20.8305 82.5758 20.896C82.4798 20.9596 82.2843 20.9914 81.9835 20.9914H81.2874V22.1274H87.1882V20.9926H86.438C86.1216 20.9926 85.9162 20.9539 85.8244 20.8782C85.7341 20.8038 85.6901 20.6099 85.6901 20.3022V15.3575H86.0804C86.5767 15.3575 86.9585 15.5081 87.2223 15.8082C87.4847 16.1083 87.6169 16.5399 87.6169 17.1057V17.1413H88.9294V14.1012H88.928ZM78.9027 14.1012H69.7775V15.2373H70.2169C70.5333 15.2373 70.7374 15.2748 70.8241 15.3454C70.9116 15.4172 70.9556 15.6086 70.9556 15.9201V20.3601C70.9556 20.6551 70.9087 20.8369 70.8149 20.8979C70.7224 20.9602 70.5255 20.992 70.2297 20.992H69.7782V22.1281H75.1172V20.9926H74.6216C74.3202 20.9926 74.119 20.9602 74.0272 20.8966C73.9341 20.8312 73.8872 20.6341 73.8872 20.3009V18.4916H74.2491C74.66 18.4916 74.943 18.5762 75.0874 18.7428C75.2338 18.9087 75.3149 19.2717 75.332 19.8318H76.4568V16.1725H75.332V16.2405C75.332 16.6887 75.2502 16.9996 75.0874 17.1757C74.9238 17.3518 74.6387 17.4389 74.2363 17.4389H73.8879V15.2373H75.0404C75.7223 15.2373 76.1845 15.2799 76.4262 15.3638C76.6665 15.4471 76.8642 15.5908 77.0164 15.7923C77.1429 15.964 77.2389 16.175 77.3057 16.4268C77.3733 16.6753 77.4195 16.9977 77.4465 17.3918H78.9041V14.1012H78.9027Z" fill="white"/>
<path d="M3.65036 13.8616C2.55326 13.8616 1.67089 14.1101 1.00325 14.6041C0.334889 15.0994 0 15.7497 0 16.5558C0 16.9309 0.0867441 17.2634 0.258099 17.5571C0.430165 17.8508 0.698219 18.1191 1.05942 18.3626C1.21086 18.4668 1.4583 18.58 1.80385 18.7014C2.14656 18.821 2.63787 18.9659 3.27281 19.1375C3.46905 19.1935 3.73924 19.2615 4.0855 19.3435C5.1435 19.6042 5.67249 19.9271 5.67249 20.313C5.67249 20.5616 5.5502 20.7638 5.30703 20.9163C5.06386 21.0702 4.73822 21.1471 4.33507 21.1471C3.66316 21.1471 3.08084 20.9748 2.58668 20.6245C2.0911 20.2755 1.73844 19.7917 1.52442 19.1744H0.227525V22.1649H1.4583L1.79319 21.7199C2.27739 21.9373 2.76372 22.1014 3.25646 22.2069C3.74706 22.315 4.2597 22.3684 4.79012 22.3684C5.95264 22.3684 6.87554 22.1274 7.56309 21.6468C8.24638 21.1649 8.5898 20.5209 8.5898 19.7097C8.5898 18.9805 8.31108 18.4058 7.75293 17.9837C7.19692 17.5603 6.22567 17.2075 4.84345 16.9214C4.70764 16.8947 4.51709 16.8584 4.27535 16.8101C3.27992 16.6283 2.78221 16.3581 2.78221 15.9996C2.78221 15.7624 2.91162 15.5622 3.17043 15.4001C3.42924 15.236 3.75915 15.154 4.16016 15.154C4.84487 15.154 5.39164 15.2945 5.79977 15.5717C6.21002 15.8502 6.48945 16.2723 6.63663 16.84H8.14826V14.0523H6.85847L6.61673 14.4579C6.1631 14.2551 5.69454 14.1057 5.21318 14.0059C4.72969 13.9099 4.2078 13.8616 3.65036 13.8616ZM42.3084 14.1012H38.3615V15.2373H38.8699C39.1742 15.2373 39.3719 15.2723 39.465 15.3378C39.5589 15.4039 39.6065 15.5984 39.6065 15.9214V19.5088L36.3031 14.1012H31.8578V15.2373H32.2972C32.6179 15.2373 32.8255 15.2755 32.9151 15.3517C33.004 15.4274 33.0488 15.6162 33.0488 15.9214V20.3022C33.0488 20.6112 33.0019 20.8038 32.9101 20.8782C32.8184 20.9538 32.6136 20.9926 32.2972 20.9926H31.8578V22.1287H35.8182V20.9926H35.4179C35.1065 20.9926 34.9031 20.9539 34.8142 20.8807C34.7247 20.8076 34.6806 20.6137 34.6806 20.3022V16.3772L38.1702 22.1287H41.2504V15.9214C41.2504 15.6111 41.2952 15.4172 41.384 15.3454C41.4736 15.2748 41.6741 15.2373 41.9891 15.2373H42.3069V14.1012H42.3084ZM31.3765 14.1012H26.0382V15.2373H26.484C26.8004 15.2373 27.0059 15.2755 27.0947 15.3517C27.1836 15.4274 27.2284 15.6162 27.2284 15.9214V20.3022C27.2284 20.6112 27.1829 20.8038 27.0912 20.8782C26.9995 20.9538 26.7968 20.9926 26.484 20.9926H26.0382V22.1287H31.3765V20.9926H30.9378C30.6214 20.9926 30.4159 20.9538 30.3242 20.8782C30.2324 20.8038 30.1869 20.6112 30.1869 20.3022V15.9214C30.1869 15.6162 30.2317 15.4274 30.3206 15.3517C30.4095 15.2761 30.6178 15.2373 30.9385 15.2373H31.3772V14.1012H31.3765ZM21.2096 14.1012H15.0288V15.2335H15.4788C15.7974 15.2335 16 15.2697 16.0882 15.3416C16.1756 15.4134 16.2204 15.6048 16.2204 15.9175V20.3009C16.2204 20.6137 16.1756 20.8076 16.0861 20.8807C15.9972 20.9539 15.7938 20.9926 15.4788 20.9926H15.0288V22.1287H20.4339V20.9926H19.9241C19.6141 20.9926 19.4122 20.9539 19.3233 20.8807C19.2344 20.8076 19.1889 20.6137 19.1889 20.3009V18.5044H19.9945C20.4965 18.5044 20.8264 18.5775 20.985 18.7231C21.1435 18.8686 21.2239 19.21 21.2239 19.746V20.4198C21.2239 21.0816 21.4116 21.5629 21.7834 21.8655C22.1553 22.17 22.7483 22.3213 23.5624 22.3213C24.3296 22.3213 24.8849 22.1522 25.229 21.8172C25.5739 21.4796 25.7466 20.9367 25.7466 20.1897C25.7466 20.1535 25.7438 20.102 25.7402 20.0295C25.7346 19.9564 25.7331 19.9042 25.7331 19.8693H24.823C24.823 19.9004 24.8259 19.9462 24.8301 20.0085C24.8344 20.0721 24.8365 20.1153 24.8365 20.1439C24.8365 20.4205 24.8088 20.6284 24.7505 20.765C24.6908 20.9017 24.6005 20.9697 24.4796 20.9697C24.353 20.9697 24.2635 20.9138 24.208 20.8019C24.1547 20.6913 24.1284 20.4929 24.1284 20.2037C24.1284 19.2501 24.021 18.6391 23.8049 18.3709C23.588 18.1064 23.1749 17.9386 22.5648 17.8731C23.1699 17.7586 23.6356 17.5501 23.9677 17.2405C24.2976 16.9335 24.4618 16.5533 24.4618 16.1025C24.4618 15.4306 24.1924 14.9302 23.6562 14.599C23.1166 14.2672 22.3025 14.1012 21.2096 14.1012ZM19.1626 17.4153V15.2856H20.0471C20.5704 15.2856 20.9331 15.3676 21.14 15.5317C21.3469 15.6944 21.4507 15.9798 21.4507 16.3861C21.4507 16.7548 21.3405 17.0205 21.1137 17.1782C20.8911 17.3346 20.5008 17.4153 19.9497 17.4153H19.1626ZM14.5467 14.1012H9.20767V15.2373H9.65348C9.96917 15.2373 10.1747 15.2755 10.265 15.3517C10.3538 15.4274 10.3986 15.6162 10.3986 15.9214V20.3022C10.3986 20.6112 10.3517 20.8038 10.2614 20.8782C10.169 20.9538 9.96704 20.9926 9.65419 20.9926H9.20767V22.1287H14.5467V20.9926H14.1073C13.7902 20.9926 13.5861 20.9538 13.4944 20.8782C13.4027 20.8038 13.3565 20.6112 13.3565 20.3022V15.9214C13.3565 15.6162 13.4005 15.4274 13.4901 15.3517C13.579 15.2761 13.7859 15.2373 14.1073 15.2373H14.5467V14.1012Z" fill="white"/>
<path d="M141.539 18.8884H142.487C142.644 19.3385 142.901 19.6926 143.262 19.9475C143.624 20.2006 144.048 20.329 144.538 20.329C144.833 20.329 145.072 20.2718 145.249 20.1605C145.427 20.0473 145.516 19.8999 145.516 19.7199C145.516 19.4383 145.13 19.2024 144.357 19.0117C144.104 18.9513 143.906 18.9024 143.763 18.8611C143.301 18.7365 142.942 18.629 142.691 18.5419C142.438 18.4542 142.26 18.3709 142.146 18.2959C141.882 18.1172 141.686 17.9214 141.561 17.7078C141.438 17.4923 141.373 17.2488 141.373 16.9755C141.373 16.3874 141.618 15.9125 142.107 15.5495C142.592 15.1903 143.237 15.0098 144.039 15.0098C144.447 15.0098 144.827 15.0447 145.18 15.114C145.533 15.1859 145.875 15.2958 146.204 15.4446L146.384 15.1484H147.323V17.184H146.219C146.113 16.7682 145.908 16.4599 145.608 16.2571C145.312 16.0549 144.912 15.9532 144.412 15.9532C144.12 15.9532 143.878 16.0123 143.688 16.1318C143.499 16.2514 143.404 16.3969 143.404 16.5699C143.404 16.8324 143.769 17.0282 144.494 17.1636C144.673 17.1973 144.809 17.2253 144.911 17.2444C145.92 17.4523 146.628 17.7097 147.033 18.0193C147.44 18.327 147.646 18.7479 147.646 19.28C147.646 19.87 147.395 20.3417 146.895 20.6945C146.393 21.0442 145.718 21.2203 144.871 21.2203C144.483 21.2203 144.108 21.1796 143.748 21.1014C143.391 21.0251 143.033 20.9056 142.683 20.7473L142.437 21.0702H141.538V18.8884H141.539Z" fill="white"/>
<path d="M158.187 13.6696C155.851 12.5641 153.056 11.8724 150.65 11.7942C148.828 11.7345 147.634 12.0218 146.638 12.4713C149.405 13.1979 151.426 15.4815 151.426 18.1916C151.426 18.2152 151.423 18.2374 151.422 18.2609C151.454 18.2412 151.486 18.2221 151.518 18.2018C154.204 16.5247 156.689 15.0079 158.758 13.9201C158.559 13.8241 158.389 13.765 158.187 13.6696Z" fill="#A7AD6E"/>
<path fill-rule="evenodd" clip-rule="evenodd" d="M144.757 12.2264C145.013 12.2264 145.266 12.2423 145.514 12.2678C145.577 12.2748 145.637 12.2849 145.699 12.2932C145.891 12.3173 146.082 12.3479 146.27 12.3866C146.323 12.3987 146.376 12.4114 146.43 12.4242C146.631 12.4706 146.828 12.5246 147.021 12.5875C147.054 12.5983 147.087 12.6079 147.119 12.6193C147.342 12.695 147.559 12.7802 147.77 12.8755C147.773 12.8768 147.776 12.8774 147.778 12.8787C148.372 12.5227 148.92 12.2258 149.387 12.0135C150.099 11.6886 151.195 11.0325 152.425 10.311C151.624 10.2995 150.765 10.3103 149.832 10.3491C147.387 10.4515 145.593 11.2175 144.309 12.2474C144.457 12.2379 144.606 12.2264 144.757 12.2264Z" fill="#C8A05E"/>
<path fill-rule="evenodd" clip-rule="evenodd" d="M144.757 12.2265C145.846 12.2265 146.87 12.4642 147.778 12.8775C148.019 12.7338 148.248 12.6041 148.472 12.4808C148.754 11.7605 148.946 11.1044 149.04 10.6257C149.054 10.5596 149.065 10.4801 149.078 10.407C147.015 10.6206 145.457 11.3256 144.309 12.2468C144.457 12.2379 144.605 12.2265 144.757 12.2265Z" fill="#C09038"/>
<path d="M148.214 13.0974C148.403 12.6746 148.558 12.2671 148.688 11.887C147.879 12.002 147.224 12.2086 146.639 12.4718C147.199 12.6187 147.726 12.8317 148.214 13.0974Z" fill="#B5943C"/>
<path fill-rule="evenodd" clip-rule="evenodd" d="M147.778 12.8781C148.372 12.5221 148.919 12.2252 149.387 12.0129C149.516 11.9537 149.671 11.8736 149.822 11.7948C148.454 11.8349 147.476 12.0955 146.641 12.4719C147.037 12.5761 147.416 12.7134 147.778 12.8781Z" fill="#B5943C"/>
<path d="M147.779 12.8781C148.019 12.7344 148.248 12.6047 148.472 12.4814C148.553 12.2767 148.624 12.079 148.69 11.887C147.881 12.0014 147.225 12.2086 146.641 12.4718C147.037 12.5755 147.416 12.7134 147.779 12.8781Z" fill="#B7882A"/>
<path fill-rule="evenodd" clip-rule="evenodd" d="M151.889 17.0828C151.657 16.9347 151.427 16.798 151.2 16.6689C151.344 17.1559 151.428 17.6639 151.428 18.1922C151.428 20.8565 149.473 23.1115 146.776 23.8763C147.662 24.2946 148.624 24.5864 150.345 24.5864C152.445 24.5864 156.045 22.8299 158.382 21.7243C158.637 21.6035 158.785 21.5298 159.036 21.4052C156.975 20.2965 154.558 18.7847 151.889 17.0828Z" fill="#A7AD6E"/>
<path d="M151.888 17.0828C151.657 16.9347 151.427 16.798 151.2 16.6689C151.344 17.1559 151.428 17.6639 151.428 18.1922C151.428 18.2157 151.424 18.2379 151.423 18.2615C151.455 18.2418 151.487 18.2227 151.519 18.2023C151.883 17.9747 152.242 17.7522 152.596 17.5323C152.361 17.3841 152.127 17.2348 151.888 17.0828Z" fill="#8C8C67"/>
<path fill-rule="evenodd" clip-rule="evenodd" d="M148.842 22.9285C148.834 22.9241 148.827 22.9196 148.818 22.9152C147.693 23.6901 146.287 24.1555 144.757 24.1555C143.261 24.1555 141.886 23.7105 140.772 22.9673C141.973 25.1669 144.443 27.4308 146.875 28.921C147.718 29.4372 148.664 29.743 149.648 29.9013C149.739 27.8485 149.612 25.8618 149.408 24.8173C149.314 24.3303 149.125 23.6628 148.842 22.9285Z" fill="#F6B131"/>
<path fill-rule="evenodd" clip-rule="evenodd" d="M149.756 23.404C149.47 23.2711 149.156 23.1059 148.819 22.9158C148.01 23.4727 147.058 23.8687 146.016 24.0467C147.131 24.6316 148.51 25.0283 150.201 25.1008C151.134 25.1408 151.993 25.151 152.793 25.1402C151.563 24.4047 150.467 23.7346 149.756 23.404Z" fill="#C8A05E"/>
<path fill-rule="evenodd" clip-rule="evenodd" d="M148.843 22.9285C148.834 22.9241 148.827 22.9196 148.818 22.9152C148.009 23.4721 147.057 23.8681 146.016 24.0461C146.957 24.5388 148.1 24.8859 149.445 25.0296C149.433 24.9591 149.422 24.8815 149.409 24.8173C149.314 24.3303 149.125 23.6628 148.843 22.9285Z" fill="#C09038"/>
<path fill-rule="evenodd" clip-rule="evenodd" d="M149.756 23.404C149.47 23.2711 149.156 23.1059 148.819 22.9158C148.211 23.3341 147.524 23.6647 146.776 23.877C147.662 24.2947 148.624 24.5865 150.345 24.5865C150.725 24.5865 151.151 24.5293 151.607 24.4314C150.87 23.994 150.228 23.6227 149.756 23.404Z" fill="#B5943C"/>
<path fill-rule="evenodd" clip-rule="evenodd" d="M148.819 22.9158C148.211 23.3335 147.525 23.664 146.777 23.8764C147.476 24.2051 148.224 24.4543 149.348 24.5458C149.244 24.0932 149.077 23.5375 148.843 22.9291C148.834 22.9247 148.826 22.9202 148.819 22.9158Z" fill="#B7882A"/>
</svg>
