<svg width="638" height="240" viewBox="0 0 638 240" fill="none" xmlns="http://www.w3.org/2000/svg">
<path d="M545.896 85.141C553.892 84.0177 561.064 88.0769 563.65 90.2469C563.007 88.8178 561.22 85.3385 559.217 82.8538C557.215 80.369 554.727 78.1732 553.734 77.386C553.883 76.4571 553.703 75.3435 552.034 73.2729C550.365 71.2023 548.029 68.8604 540.618 67.0134C533.208 65.1663 531.202 66.386 529.481 64.25C527.759 62.1139 528.864 58.9598 529.247 58.4709C528.031 59.9306 525.576 66.4665 531.929 69.8759C534.041 71.0098 540.374 72.2029 543.854 74.0719C546.639 75.5671 547.248 76.5011 546.843 77.1867C542.066 75.0447 530.743 70.748 523.667 70.6979C516.592 70.6477 509.675 75.3826 507.102 77.7563C509.46 77.7133 515.804 78.2214 522.313 80.5974C528.822 82.9735 532.892 86.153 534.114 87.4457C534.709 87.1455 537.899 86.2643 545.896 85.141Z" fill="black"/>
<path fill-rule="evenodd" clip-rule="evenodd" d="M323.984 78.0033C394.374 41.4171 419.164 108.878 535.596 95.6283C435.801 126.095 401.036 50.3777 323.984 78.0033Z" fill="black"/>
<path fill-rule="evenodd" clip-rule="evenodd" d="M291.495 97.122C374.475 43.2308 403.308 119.564 519.235 104.967C502.208 110.331 486.54 112.596 471.885 112.844C350.002 161.855 271.546 75.3687 73.9854 115.879C229.251 65.5407 349.657 134.051 439.966 110.372C386.044 101.484 344.291 73.1111 291.495 97.1221L291.495 97.122Z" fill="black"/>
<path fill-rule="evenodd" clip-rule="evenodd" d="M413.872 0.40332C403.529 88.757 481.09 84.876 530.5 94.0088C469.441 61.9979 426.748 77.1127 413.872 0.40332Z" fill="black"/>
<path fill-rule="evenodd" clip-rule="evenodd" d="M394.341 0.0564514C370.247 86.9942 473.117 89.4188 481.731 93.7389C444.05 72.6416 394.323 78.4925 394.341 0.0564514Z" fill="black"/>
<path d="M245.094 198.702C245.094 200.782 245.898 202.719 247.505 204.515C249.159 206.264 251.144 207.824 253.46 209.194C255.823 210.518 258.163 211.889 260.479 213.306C262.795 214.677 264.756 216.379 266.363 218.411C268.017 220.443 268.844 222.688 268.844 225.146C268.844 229.022 267.403 232.188 264.52 234.646C261.684 237.104 257.832 238.333 252.964 238.333C248.096 238.333 243.275 237.411 238.501 235.568V232.236C243.322 234.646 247.41 235.851 250.766 235.851C254.169 235.851 256.816 235.024 258.706 233.37C260.597 231.716 261.542 229.423 261.542 226.493C261.542 224.508 260.762 222.712 259.203 221.105C257.643 219.451 255.752 218.033 253.531 216.851C251.31 215.622 249.088 214.37 246.867 213.094C244.645 211.818 242.755 210.211 241.195 208.273C239.635 206.288 238.856 203.901 238.856 201.112C238.856 198.324 240.084 195.724 242.542 193.314C245.047 190.903 248.757 189.698 253.673 189.698C256.887 189.698 260.951 190.431 265.867 191.896L265.158 196.717C258.777 193.976 253.318 192.605 248.781 192.605C246.323 193.786 245.094 195.819 245.094 198.702Z" fill="black"/>
<path d="M308.877 189.698C315.021 189.698 320.102 191.73 324.119 195.795C328.137 199.813 330.146 205.413 330.146 212.597C330.146 217.229 329.342 221.294 327.735 224.792C326.128 228.242 324.025 230.912 321.425 232.803C316.368 236.489 310.791 238.333 304.694 238.333C298.597 238.333 293.54 236.3 289.522 232.236C285.552 228.124 283.567 222.476 283.567 215.292C283.567 211.558 284.087 208.202 285.127 205.224C286.214 202.199 287.608 199.742 289.31 197.851C291.058 195.961 293.067 194.377 295.336 193.101C299.495 190.832 304.009 189.698 308.877 189.698ZM294.627 229.4C295.856 231.479 297.51 233.11 299.589 234.292C301.669 235.426 304.056 235.993 306.75 235.993C309.491 235.993 311.925 235.308 314.052 233.937C316.179 232.566 317.833 230.77 319.015 228.549C321.425 224.106 322.631 219.333 322.631 214.228C322.631 207.942 321.378 202.885 318.873 199.056C316.084 194.755 311.476 192.605 305.048 192.605C300.464 194.212 296.99 196.977 294.627 200.9C292.264 204.823 291.082 209.265 291.082 214.228C291.082 220.278 292.264 225.335 294.627 229.4Z" fill="black"/>
<path d="M353.939 211.534H368.969V214.228H353.939V237.482H347.062V190.549H374.782V195.299L361.666 193.101C359.303 193.101 356.727 193.503 353.939 194.306V211.534Z" fill="black"/>
<path d="M405.37 237.482H398.493V193.952C396.886 193.574 395.279 193.385 393.672 193.385L384.101 195.582L383.676 190.549H420.187L419.833 195.582L410.191 193.385C408.584 193.385 406.977 193.574 405.37 193.952V237.482Z" fill="black"/>
<path d="M485.493 190.549H489.038L471.456 238.545H470.321L459.474 209.478L448.84 238.545H447.706L429.769 190.549H437.497L449.974 228.974L457.915 205.295L452.385 190.549H460.112L472.59 228.974L485.493 190.549Z" fill="black"/>
<path d="M497.256 237.482L518.312 189.415H519.375L540.431 237.482H532.704L527.386 224.721H506.33L501.084 237.482H497.256ZM507.394 222.027H526.252L516.894 199.056L507.394 222.027Z" fill="black"/>
<path d="M562.615 215.079V237.482H555.667V190.549H570.981C575.754 190.549 579.654 191.612 582.679 193.739C585.751 195.866 587.287 198.678 587.287 202.176C587.287 205.626 586.058 208.367 583.6 210.4C581.19 212.385 577.905 213.755 573.746 214.512L592.746 237.482L584.522 238.474L568.074 215.079H562.615ZM562.615 212.952H567.152C575.66 212.952 579.914 209.596 579.914 202.885C579.914 201.75 579.63 200.474 579.063 199.056C577.976 196.079 575.66 194.117 572.115 193.172C568.901 193.172 565.734 193.574 562.615 194.377V212.952Z" fill="black"/>
<path d="M609.03 237.482V190.549H637.459L636.75 195.299L623.564 193.101C621.248 193.101 618.696 193.503 615.907 194.306V211.534H631.646V214.228H615.907V234.93L637.885 232.732L637.176 237.482H609.03Z" fill="black"/>
<path d="M7.59331 198.702C7.59331 200.782 8.3968 202.719 10.0038 204.515C11.658 206.264 13.6431 207.824 15.959 209.195C18.3222 210.518 20.6618 211.889 22.9777 213.307C25.2936 214.677 27.2551 216.379 28.8621 218.411C30.5163 220.443 31.3434 222.688 31.3434 225.146C31.3434 229.022 29.9019 232.188 27.0188 234.646C24.1829 237.104 20.3309 238.333 15.4627 238.333C10.5946 238.333 5.77365 237.411 1 235.568V232.236C5.82091 234.646 9.90924 235.851 13.265 235.851C16.668 235.851 19.3147 235.024 21.2053 233.37C23.0959 231.716 24.0411 229.424 24.0411 226.493C24.0411 224.508 23.2613 222.712 21.7016 221.105C20.1419 219.451 18.2513 218.033 16.0299 216.851C13.8085 215.622 11.5871 214.37 9.36571 213.094C7.1443 211.818 5.25375 210.211 3.69404 208.273C2.13433 206.288 1.35448 203.901 1.35448 201.112C1.35448 198.324 2.58334 195.724 5.04106 193.314C7.54605 190.903 11.2563 189.698 16.1717 189.698C19.3856 189.698 23.4503 190.431 28.3658 191.896L27.6568 196.717C21.2762 193.976 15.8172 192.605 11.2799 192.605C8.82217 193.787 7.59331 195.819 7.59331 198.702Z" fill="black"/>
<path d="M57.9764 190.549V237.482H51.454V190.549H57.9764Z" fill="black"/>
<path d="M87.2891 215.079V237.482H80.3413V190.549H95.6548C100.428 190.549 104.328 191.612 107.353 193.739C110.425 195.866 111.961 198.678 111.961 202.176C111.961 205.626 110.732 208.367 108.274 210.4C105.864 212.385 102.579 213.756 98.4197 214.512L117.42 237.482L109.196 238.475L92.748 215.079H87.2891ZM87.2891 212.952H91.8264C100.334 212.952 104.588 209.596 104.588 202.885C104.588 201.751 104.304 200.474 103.737 199.056C102.65 196.079 100.334 194.117 96.7891 193.172C93.5751 193.172 90.4085 193.574 87.2891 194.377V212.952Z" fill="black"/>
<path d="M141.645 190.549V237.482H135.122V190.549H141.645Z" fill="black"/>
<path d="M199.67 238.262H198.465L167.412 199.411H167.129V237.482H164.009V190.549H169.256L196.267 224.65H196.551V190.549H199.67V238.262Z" fill="black"/>
<path fill-rule="evenodd" clip-rule="evenodd" d="M26.7051 196.315C20.7317 193.842 15.59 192.605 11.2799 192.605C8.82217 193.787 7.59331 195.819 7.59331 198.702C7.59331 200.782 8.3968 202.719 10.0038 204.515C11.658 206.264 13.6431 207.824 15.959 209.195C18.3222 210.518 20.6618 211.889 22.9777 213.307C25.2936 214.677 27.2551 216.379 28.8621 218.411C30.5163 220.443 31.3434 222.688 31.3434 225.146C31.3434 229.022 29.9019 232.188 27.0188 234.646C24.1829 237.104 20.3309 238.333 15.4627 238.333C10.5946 238.333 5.77365 237.411 1 235.568V232.236C1.33691 232.404 1.67024 232.567 2 232.723C6.38876 234.809 10.1438 235.851 13.265 235.851C16.668 235.851 19.3147 235.024 21.2053 233.37C23.0959 231.716 24.0411 229.424 24.0411 226.493C24.0411 224.508 23.2613 222.712 21.7016 221.105C20.1419 219.451 18.2513 218.033 16.0299 216.851C13.8085 215.622 11.5871 214.37 9.36571 213.094C7.1443 211.818 5.25375 210.211 3.69404 208.273C2.13433 206.288 1.35448 203.901 1.35448 201.112C1.35448 198.324 2.58334 195.724 5.04106 193.314C7.54605 190.903 11.2563 189.698 16.1717 189.698C19.3856 189.698 23.4503 190.431 28.3658 191.896L27.6568 196.717C27.3373 196.58 27.02 196.446 26.7051 196.315ZM27.6703 235.405C24.6045 238.06 20.4966 239.333 15.4627 239.333C10.4652 239.333 5.52239 238.386 0.639783 236.501L0 236.254V230.618L1.44721 231.341C6.20426 233.72 10.1309 234.851 13.265 234.851C16.5123 234.851 18.8945 234.063 20.5468 232.617C22.1834 231.185 23.0411 229.188 23.0411 226.493C23.0411 224.802 22.3878 223.248 20.984 221.802L20.979 221.796L20.974 221.791C19.4965 220.224 17.6957 218.87 15.5603 217.734L15.553 217.73L15.5459 217.726C13.3197 216.495 11.0936 215.24 8.86758 213.961C6.54173 212.625 4.55497 210.937 2.91503 208.9L2.90767 208.891C1.19492 206.711 0.354479 204.1 0.354479 201.112C0.354479 197.995 1.73922 195.152 4.34085 192.6L4.34765 192.593C7.10424 189.941 11.1053 188.698 16.1717 188.698C19.5223 188.698 23.6915 189.459 28.6514 190.938L29.4811 191.185L28.457 198.149L27.2621 197.636C21.059 194.971 15.8185 193.652 11.5129 193.606C10.5379 194.112 9.83886 194.759 9.37069 195.533C8.86899 196.363 8.59331 197.404 8.59331 198.702C8.59331 200.493 9.27552 202.198 10.7399 203.838C12.3188 205.506 14.222 207.003 16.4582 208.328C18.827 209.655 21.1721 211.029 23.4935 212.45C25.9061 213.879 27.9584 215.657 29.6421 217.785C31.4282 219.982 32.3434 222.445 32.3434 225.146C32.3434 229.306 30.7802 232.752 27.6703 235.405ZM58.9764 189.549V238.482H50.454V189.549H58.9764ZM109.196 238.475L92.748 215.079H87.2891V237.482H80.3413V190.549H95.6548C100.428 190.549 104.328 191.612 107.353 193.739C110.425 195.866 111.961 198.678 111.961 202.176C111.961 205.626 110.732 208.367 108.274 210.4C106.083 212.204 103.17 213.501 99.534 214.29C99.1698 214.369 98.7984 214.443 98.4197 214.512L117.42 237.482L109.196 238.475ZM100.249 215.154L119.357 238.255L108.722 239.539L92.2287 216.079H88.2891V238.482H79.3413V189.549H95.6548C100.573 189.549 104.689 190.645 107.925 192.919C111.243 195.218 112.961 198.326 112.961 202.176C112.961 205.896 111.62 208.931 108.911 211.17L108.91 211.172C106.67 213.016 103.768 214.331 100.249 215.154ZM102.803 199.414L102.798 199.399C101.853 196.813 99.8695 195.06 96.6567 194.172C93.8298 194.182 91.0411 194.512 88.2891 195.161V211.952H91.8264C95.9757 211.952 98.9031 211.129 100.778 209.65C102.608 208.207 103.588 206.015 103.588 202.885C103.588 201.913 103.344 200.766 102.808 199.428L102.803 199.414ZM91.8264 212.952C100.334 212.952 104.588 209.596 104.588 202.885C104.588 201.751 104.304 200.474 103.737 199.056C102.65 196.079 100.334 194.117 96.7891 193.172C93.5751 193.172 90.4085 193.574 87.2891 194.377V212.952H91.8264ZM142.645 189.549V238.482H134.122V189.549H142.645ZM200.67 239.262H197.984L168.129 201.909V238.482H163.009V189.549H169.739L195.551 222.135V189.549H200.67V239.262ZM196.551 190.549H199.67V238.262H198.465L167.412 199.411H167.129V237.482H164.009V190.549H169.256L196.267 224.65H196.551V190.549ZM57.9764 237.482H51.454V190.549H57.9764V237.482ZM141.645 237.482H135.122V190.549H141.645V237.482Z" fill="black"/>
</svg>
