<svg width="0" height="0" class="hidden">
  <symbol viewBox="0 0 10 18"  xmlns="http://www.w3.org/2000/svg" id="facebook">
    <path d="M9.365.004L7.031 0C4.409 0 2.714 1.739 2.714 4.43v2.042H.367A.367.367 0 0 0 0 6.84V9.8c0 .203.164.367.367.367h2.347v7.467c0 .203.164.367.367.367h3.062a.367.367 0 0 0 .367-.367v-7.467h2.744a.367.367 0 0 0 .367-.367l.001-2.96a.368.368 0 0 0-.367-.367H6.51V4.741c0-.832.198-1.255 1.282-1.255h1.573a.367.367 0 0 0 .367-.367V.37a.367.367 0 0 0-.367-.367z"
    ></path>
  </symbol>

  <symbol viewBox="0 0 18 18"  xmlns="http://www.w3.org/2000/svg" id="twitter">
    <g clip-path="url(#clip0)">
      <path d="M17.592 3.332a6.824 6.824 0 0 1-.87.318c.35-.398.619-.866.783-1.378a.29.29 0 0 0-.425-.338 6.85 6.85 0 0 1-2.025.8 3.883 3.883 0 0 0-2.705-1.102 3.868 3.868 0 0 0-3.832 4.363 9.893 9.893 0 0 1-6.79-3.602.29.29 0 0 0-.476.037 3.862 3.862 0 0 0-.524 1.943c0 .931.333 1.814.92 2.505a3.273 3.273 0 0 1-.517-.231.29.29 0 0 0-.431.247v.052c0 1.39.747 2.64 1.89 3.322a3.341 3.341 0 0 1-.293-.042.29.29 0 0 0-.331.374 3.863 3.863 0 0 0 2.83 2.59 6.836 6.836 0 0 1-3.654 1.043c-.273 0-.549-.017-.818-.049a.29.29 0 0 0-.19.533 10.42 10.42 0 0 0 5.634 1.652c3.934 0 6.395-1.855 7.767-3.412 1.71-1.94 2.692-4.509 2.692-7.047 0-.106-.002-.213-.005-.32a7.513 7.513 0 0 0 1.729-1.83.29.29 0 0 0-.36-.428z"
        ></path>
    </g>
    <defs>
      <clipPath id="clip0">
        <path d="M0 0h18v18H0z"></path>
      </clipPath>
    </defs>
  </symbol>

   <symbol viewBox="0 0 18 18" xmlns="http://www.w3.org/2000/svg" id="linkedin">
    <g clip-path="url(#clip0)">
      <path d="M17.995 18v-.001h.004v-6.602c0-3.23-.695-5.717-4.47-5.717-1.816 0-3.034.996-3.53 1.94h-.053V5.982h-3.58v12.017h3.727v-5.95c0-1.567.297-3.082 2.238-3.082 1.911 0 1.94 1.787 1.94 3.182v5.85h3.724zM.298 5.983H4.03V18H.298V5.983zM2.162 0A2.162 2.162 0 0 0 0 2.162c0 1.193.968 2.181 2.162 2.181 1.193 0 2.161-.988 2.161-2.181A2.163 2.163 0 0 0 2.161 0z"></path>
    </g>
    <defs>
      <clipPath id="clip0">
        <path d="M0 0h18v18H0z"></path>
      </clipPath>
    </defs>
  </symbol>

  <symbol viewBox="0 0 18 18" xmlns="http://www.w3.org/2000/svg" id="copy">
    <path d="M10.981 7.016a4.2 4.2 0 0 0-5.939 0l-3.815 3.818a4.2 4.2 0 0 0 5.936 5.942l3.15-3.15a.3.3 0 0 0-.213-.512h-.12a5.048 5.048 0 0 1-1.92-.372.3.3 0 0 0-.327.066l-2.265 2.268a1.8 1.8 0 0 1-2.546-2.547l3.83-3.827a1.8 1.8 0 0 1 2.544 0 1.23 1.23 0 0 0 1.685 0 1.2 1.2 0 0 0 .348-.762 1.2 1.2 0 0 0-.348-.924z"
      ></path>
    <path d="M16.766 1.23a4.2 4.2 0 0 0-5.939 0L7.681 4.373a.3.3 0 0 0 .218.513h.111a5.04 5.04 0 0 1 1.917.375.3.3 0 0 0 .327-.066l2.259-2.255a1.8 1.8 0 0 1 2.546 2.546l-2.813 2.81-.024.028-.984.978a1.8 1.8 0 0 1-2.544 0 1.23 1.23 0 0 0-1.685 0 1.2 1.2 0 0 0 0 1.692 4.19 4.19 0 0 0 1.2.84c.062.03.125.053.188.08.063.027.13.048.192.072.063.024.13.045.192.063l.177.048c.12.03.24.054.363.075.148.022.297.036.447.042h.228l.18-.021c.066-.003.135-.018.213-.018h.102l.207-.03.096-.018.174-.036H11a4.198 4.198 0 0 0 1.947-1.104l3.818-3.818a4.2 4.2 0 0 0 0-5.939z"></path>
  </symbol>


  <symbol viewBox="0 0 19 26" xmlns="http://www.w3.org/2000/svg" id="location">
    <path d="M9.022 0C4.047 0 0 4.048 0 9.023c0 4.79 8.186 15.978 8.535 16.452l.325.442a.201.201 0 0 0 .326 0l.325-.442C9.86 25 18.046 13.812 18.046 9.023 18.046 4.048 13.998 0 9.022 0zm0 5.791a3.235 3.235 0 0 1 3.232 3.232 3.236 3.236 0 0 1-3.232 3.232A3.237 3.237 0 0 1 5.79 9.023a3.236 3.236 0 0 1 3.232-3.232z"
    ></path>
  </symbol>

  <symbol viewBox="0 0 19 30" fill="none" xmlns="http://www.w3.org/2000/svg" id="phone">
    <rect x="1" y="1" width="16.182" height="28" rx="2" stroke="#F8710F" stroke-width="2" stroke-linecap="square" stroke-linejoin="round"></rect>
    <path fill="#F8710F" d="M1.667.833h15v3.333h-15zm0 25h15v3.333h-15z"></path>
    <path d="M10.747 27.197h-2.78a.695.695 0 1 0 0 1.39h2.78a.695.695 0 0 0 0-1.39zM7.349 3.257a.682.682 0 1 0 0-1.363.682.682 0 0 0 0 1.363z" fill="#F2F2F2"></path>
    <rect x="8.804" y="1.894" width="3.409" height="1.364" rx=".682" fill="#F2F2F2"></rect>
  </symbol>

  <symbol viewBox="0 0 30 23" xmlns="http://www.w3.org/2000/svg" id="message">
    <path d="M.626 1.826C4.743 5.313 11.968 11.447 14.09 13.36c.286.258.591.39.909.39.316 0 .622-.13.906-.388 2.125-1.914 9.35-8.05 13.467-11.536a.624.624 0 0 0 .088-.863A2.482 2.482 0 0 0 27.5 0h-25C1.733 0 1.018.351.538.963a.625.625 0 0 0 .088.863zm29.011 1.889a.622.622 0 0 0-.666.09c-2.697 2.287-6.25 5.307-8.929 7.611a.624.624 0 0 0 .017.962c2.49 1.994 6.242 4.736 8.951 6.686a.623.623 0 0 0 .65.049.625.625 0 0 0 .34-.556V4.283a.625.625 0 0 0-.363-.568zM.99 19.064c2.71-1.95 6.462-4.693 8.951-6.687a.624.624 0 0 0 .018-.961 1803.43 1803.43 0 0 0-8.93-7.61A.625.625 0 0 0 0 4.281v14.274a.625.625 0 0 0 .99.508z"
    ></path>
    <path d="M29.234 20.764c-2.616-1.872-7.436-5.361-10.314-7.697a.626.626 0 0 0-.804.014c-.564.493-1.037.908-1.372 1.21-1.03.928-2.457.928-3.489-.002-.334-.3-.806-.717-1.37-1.208a.623.623 0 0 0-.804-.014C8.213 15.395 3.388 18.89.767 20.764a.627.627 0 0 0-.094.934c.473.51 1.14.802 1.827.802h25c.688 0 1.354-.292 1.828-.802a.625.625 0 0 0-.094-.934z"
    ></path>
  </symbol>
</svg>