<svg width="0" height="0" class="hidden">
  <symbol viewBox="0 0 10 18"  xmlns="http://www.w3.org/2000/svg" id="facebook">
    <path d="M9.365.004L7.031 0C4.409 0 2.714 1.739 2.714 4.43v2.042H.367A.367.367 0 0 0 0 6.84V9.8c0 .203.164.367.367.367h2.347v7.467c0 .203.164.367.367.367h3.062a.367.367 0 0 0 .367-.367v-7.467h2.744a.367.367 0 0 0 .367-.367l.001-2.96a.368.368 0 0 0-.367-.367H6.51V4.741c0-.832.198-1.255 1.282-1.255h1.573a.367.367 0 0 0 .367-.367V.37a.367.367 0 0 0-.367-.367z"
    ></path>
  </symbol>

  <symbol viewBox="0 0 18 18"  xmlns="http://www.w3.org/2000/svg" id="twitter">
    <g clip-path="url(#clip0)">
      <path d="M17.592 3.332a6.824 6.824 0 0 1-.87.318c.35-.398.619-.866.783-1.378a.29.29 0 0 0-.425-.338 6.85 6.85 0 0 1-2.025.8 3.883 3.883 0 0 0-2.705-1.102 3.868 3.868 0 0 0-3.832 4.363 9.893 9.893 0 0 1-6.79-3.602.29.29 0 0 0-.476.037 3.862 3.862 0 0 0-.524 1.943c0 .931.333 1.814.92 2.505a3.273 3.273 0 0 1-.517-.231.29.29 0 0 0-.431.247v.052c0 1.39.747 2.64 1.89 3.322a3.341 3.341 0 0 1-.293-.042.29.29 0 0 0-.331.374 3.863 3.863 0 0 0 2.83 2.59 6.836 6.836 0 0 1-3.654 1.043c-.273 0-.549-.017-.818-.049a.29.29 0 0 0-.19.533 10.42 10.42 0 0 0 5.634 1.652c3.934 0 6.395-1.855 7.767-3.412 1.71-1.94 2.692-4.509 2.692-7.047 0-.106-.002-.213-.005-.32a7.513 7.513 0 0 0 1.729-1.83.29.29 0 0 0-.36-.428z"
        ></path>
    </g>
    <defs>
      <clipPath id="clip0">
        <path d="M0 0h18v18H0z"></path>
      </clipPath>
    </defs>
  </symbol>

   <symbol viewBox="0 0 18 18" xmlns="http://www.w3.org/2000/svg" id="linkedin">
    <g clip-path="url(#clip0)">
      <path d="M17.995 18v-.001h.004v-6.602c0-3.23-.695-5.717-4.47-5.717-1.816 0-3.034.996-3.53 1.94h-.053V5.982h-3.58v12.017h3.727v-5.95c0-1.567.297-3.082 2.238-3.082 1.911 0 1.94 1.787 1.94 3.182v5.85h3.724zM.298 5.983H4.03V18H.298V5.983zM2.162 0A2.162 2.162 0 0 0 0 2.162c0 1.193.968 2.181 2.162 2.181 1.193 0 2.161-.988 2.161-2.181A2.163 2.163 0 0 0 2.161 0z"></path>
    </g>
    <defs>
      <clipPath id="clip0">
        <path d="M0 0h18v18H0z"></path>
      </clipPath>
    </defs>
  </symbol>

  <symbol viewBox="0 0 18 18" xmlns="http://www.w3.org/2000/svg" id="copy">
    <path d="M10.981 7.016a4.2 4.2 0 0 0-5.939 0l-3.815 3.818a4.2 4.2 0 0 0 5.936 5.942l3.15-3.15a.3.3 0 0 0-.213-.512h-.12a5.048 5.048 0 0 1-1.92-.372.3.3 0 0 0-.327.066l-2.265 2.268a1.8 1.8 0 0 1-2.546-2.547l3.83-3.827a1.8 1.8 0 0 1 2.544 0 1.23 1.23 0 0 0 1.685 0 1.2 1.2 0 0 0 .348-.762 1.2 1.2 0 0 0-.348-.924z"
      ></path>
    <path d="M16.766 1.23a4.2 4.2 0 0 0-5.939 0L7.681 4.373a.3.3 0 0 0 .218.513h.111a5.04 5.04 0 0 1 1.917.375.3.3 0 0 0 .327-.066l2.259-2.255a1.8 1.8 0 0 1 2.546 2.546l-2.813 2.81-.024.028-.984.978a1.8 1.8 0 0 1-2.544 0 1.23 1.23 0 0 0-1.685 0 1.2 1.2 0 0 0 0 1.692 4.19 4.19 0 0 0 1.2.84c.062.03.125.053.188.08.063.027.13.048.192.072.063.024.13.045.192.063l.177.048c.12.03.24.054.363.075.148.022.297.036.447.042h.228l.18-.021c.066-.003.135-.018.213-.018h.102l.207-.03.096-.018.174-.036H11a4.198 4.198 0 0 0 1.947-1.104l3.818-3.818a4.2 4.2 0 0 0 0-5.939z"></path>
  </symbol>

  <symbol viewBox="0 0 19 26" xmlns="http://www.w3.org/2000/svg" id="location">
    <path d="M9.022 0C4.047 0 0 4.048 0 9.023c0 4.79 8.186 15.978 8.535 16.452l.325.442a.201.201 0 0 0 .326 0l.325-.442C9.86 25 18.046 13.812 18.046 9.023 18.046 4.048 13.998 0 9.022 0zm0 5.791a3.235 3.235 0 0 1 3.232 3.232 3.236 3.236 0 0 1-3.232 3.232A3.237 3.237 0 0 1 5.79 9.023a3.236 3.236 0 0 1 3.232-3.232z"
    ></path>
  </symbol>

  <symbol viewBox="0 0 19 30" fill="none" xmlns="http://www.w3.org/2000/svg" id="phone">
    <rect x="1" y="1" width="16.182" height="28" rx="2" stroke="#F8710F" stroke-width="2" stroke-linecap="square" stroke-linejoin="round"></rect>
    <path fill="#F8710F" d="M1.667.833h15v3.333h-15zm0 25h15v3.333h-15z"></path>
    <path d="M10.747 27.197h-2.78a.695.695 0 1 0 0 1.39h2.78a.695.695 0 0 0 0-1.39zM7.349 3.257a.682.682 0 1 0 0-1.363.682.682 0 0 0 0 1.363z" fill="#F2F2F2"></path>
    <rect x="8.804" y="1.894" width="3.409" height="1.364" rx=".682" fill="#F2F2F2"></rect>
  </symbol>

  <symbol viewBox="0 0 30 23" xmlns="http://www.w3.org/2000/svg" id="message">
    <path d="M.626 1.826C4.743 5.313 11.968 11.447 14.09 13.36c.286.258.591.39.909.39.316 0 .622-.13.906-.388 2.125-1.914 9.35-8.05 13.467-11.536a.624.624 0 0 0 .088-.863A2.482 2.482 0 0 0 27.5 0h-25C1.733 0 1.018.351.538.963a.625.625 0 0 0 .088.863zm29.011 1.889a.622.622 0 0 0-.666.09c-2.697 2.287-6.25 5.307-8.929 7.611a.624.624 0 0 0 .017.962c2.49 1.994 6.242 4.736 8.951 6.686a.623.623 0 0 0 .65.049.625.625 0 0 0 .34-.556V4.283a.625.625 0 0 0-.363-.568zM.99 19.064c2.71-1.95 6.462-4.693 8.951-6.687a.624.624 0 0 0 .018-.961 1803.43 1803.43 0 0 0-8.93-7.61A.625.625 0 0 0 0 4.281v14.274a.625.625 0 0 0 .99.508z"
    ></path>
    <path d="M29.234 20.764c-2.616-1.872-7.436-5.361-10.314-7.697a.626.626 0 0 0-.804.014c-.564.493-1.037.908-1.372 1.21-1.03.928-2.457.928-3.489-.002-.334-.3-.806-.717-1.37-1.208a.623.623 0 0 0-.804-.014C8.213 15.395 3.388 18.89.767 20.764a.627.627 0 0 0-.094.934c.473.51 1.14.802 1.827.802h25c.688 0 1.354-.292 1.828-.802a.625.625 0 0 0-.094-.934z"
    ></path>
  </symbol>

  <symbol viewBox="0 0 30 30" xmlns="http://www.w3.org/2000/svg" id="twitter-footer">
    <path d="M26.74 0H3.26A3.265 3.265 0 0 0 0 3.26v23.48A3.265 3.265 0 0 0 3.26 30h23.48A3.265 3.265 0 0 0 30 26.74V3.26A3.265 3.265 0 0 0 26.74 0zm1.956 26.74a1.96 1.96 0 0 1-1.957 1.956H3.261a1.96 1.96 0 0 1-1.957-1.957V3.261a1.96 1.96 0 0 1 1.957-1.957h23.478a1.96 1.96 0 0 1 1.957 1.957v23.478z"
     ></path>
    <path d="M20.217 18.26h-7.174v-2.608h4.565a3.265 3.265 0 0 0 3.261-3.26 3.265 3.265 0 0 0-3.26-3.262h-4.566v-.652a3.265 3.265 0 0 0-3.26-3.26 3.265 3.265 0 0 0-3.262 3.26v10.435a5.876 5.876 0 0 0 5.87 5.87h7.826a3.265 3.265 0 0 0 3.261-3.261 3.265 3.265 0 0 0-3.26-3.261zm0 5.218h-7.826a4.571 4.571 0 0 1-4.565-4.565V8.478a1.96 1.96 0 0 1 1.956-1.956 1.96 1.96 0 0 1 1.957 1.956v1.305c0 .36.291.652.652.652h5.217a1.96 1.96 0 0 1 1.957 1.956 1.96 1.96 0 0 1-1.957 1.957h-5.217a.651.651 0 0 0-.652.652v3.913c0 .36.291.652.652.652h7.826a1.96 1.96 0 0 1 1.957 1.957 1.96 1.96 0 0 1-1.957 1.956z"
    ></path>
  </symbol>

  <symbol viewBox="0 0 30 30" xmlns="http://www.w3.org/2000/svg" id="linkedin-footer">
    <path d="M7.927 5.25a2.62 2.62 0 0 0-1.884.76 2.628 2.628 0 0 0-.793 1.884c0 .727.297 1.388.793 1.884.496.496 1.19.793 1.851.76h.066c.661 0 1.29-.264 1.785-.76a2.65 2.65 0 0 0 .793-1.884c.033-.694-.264-1.355-.76-1.85a2.501 2.501 0 0 0-1.85-.794zm1.355 4.065c-.363.364-.86.595-1.388.562a2.006 2.006 0 0 1-1.388-.562c-.397-.363-.595-.892-.595-1.42a1.975 1.975 0 0 1 2.016-1.984c.496 0 .992.198 1.355.562.397.397.595.892.595 1.421s-.198 1.058-.595 1.421zM9.216 11.2H6.539c-.53 0-.959.429-.959.99v11.57c0 .528.463.991.992.991h2.644c.528 0 .991-.463.991-.958V12.19c0-.53-.463-.992-.991-.992zm.33 12.592c0 .165-.165.297-.33.297H6.572a.355.355 0 0 1-.33-.33V12.19c0-.166.131-.33.297-.33h2.677c.165 0 .33.164.33.33v11.6zm10.907-12.923h-.694c-1.289 0-2.512.562-3.305 1.454v-.463c0-.33-.33-.66-.66-.66h-3.306c-.297 0-.66.264-.66.627v12.328c0 .364.363.595.66.595h3.636c.297 0 .66-.231.66-.595v-7.139c0-1.09.794-1.95 1.819-1.95.528 0 1.024.198 1.388.562.33.297.462.76.462 1.355v7.106c0 .33.33.661.662.661h3.305c.33 0 .66-.33.66-.661v-8.527c0-2.644-2.015-4.693-4.627-4.693zm3.966 13.187l-.032.033h-3.24l-.033-7.106c0-.793-.198-1.388-.628-1.818a2.6 2.6 0 0 0-1.85-.76c-1.389.033-2.48 1.157-2.48 2.611v7.073h-3.635V11.86h3.272l.033.033v2.082l.893-.892.033-.033c.66-.925 1.818-1.52 3.04-1.52h.694c2.215 0 3.933 1.784 3.933 4.032v8.494z"
    ></path>
    <path d="M26.74 0H3.26A3.265 3.265 0 0 0 0 3.26v23.48A3.265 3.265 0 0 0 3.26 30h23.48A3.265 3.265 0 0 0 30 26.74V3.26A3.265 3.265 0 0 0 26.74 0zm1.956 26.74a1.96 1.96 0 0 1-1.957 1.956H3.261a1.96 1.96 0 0 1-1.957-1.957V3.261a1.96 1.96 0 0 1 1.957-1.957h23.478a1.96 1.96 0 0 1 1.957 1.957v23.478z"
    ></path>
  </symbol>

  <symbol viewBox="0 0 30 30" xmlns="http://www.w3.org/2000/svg" id="facebook-footer">
    <path d="M27.5 0h-25C1.1 0 0 1.1 0 2.5v25C0 28.9 1.1 30 2.5 30h25c1.4 0 2.5-1.1 2.5-2.5v-25C30 1.1 28.9 0 27.5 0zM15 29V19h-4v-4h4v-3.5c0-2.85 2.2-5.25 5-5.5h4.5v4h-4c-.85 0-1.5.65-1.5 1.5V15h5v4h-5v10h-4zm14-1.5c0 .85-.65 1.5-1.5 1.5H20v-9h5v-6h-5v-2.5c0-.3.2-.5.5-.5h5V5h-5.55C16.6 5.3 14 8.15 14 11.5V14h-4v6h4v9H2.5c-.85 0-1.5-.65-1.5-1.5v-25C1 1.65 1.65 1 2.5 1h25c.85 0 1.5.65 1.5 1.5v25z"
  ></path>
  </symbol>
</svg>