<svg width="1020" height="598" viewBox="0 0 1020 598" fill="none" xmlns="http://www.w3.org/2000/svg">
<g clip-path="url(#clip0)">
<g opacity="0.1">
<path d="M317.33 278.326L313.031 282.578L553.26 520.7L557.559 516.448L317.33 278.326Z" fill="#216628"/>
<path d="M423.171 167.5L35.3241 550.793L39.6177 555.053L427.465 171.76L423.171 167.5Z" fill="#A29393"/>
<path d="M37.335 562.96C37.3301 568.003 33.1827 572.102 28.0896 572.097C23.0015 572.092 18.867 567.986 18.8718 562.943C18.8767 557.904 23.0191 553.804 28.1072 553.809C33.2003 553.814 37.3399 557.921 37.335 562.96ZM44.9135 562.968C44.9224 553.775 37.4013 546.321 28.1144 546.312C18.8309 546.303 11.3021 553.743 11.2932 562.935C11.2844 572.129 18.7988 579.587 28.0824 579.596C37.3692 579.605 44.9047 572.161 44.9135 562.968Z" fill="#A29393"/>
<path d="M153.124 397.545L157.424 393.294L347.015 581.384C360.039 594.307 381.283 594.355 394.366 581.487L984.819 0.948458L989.103 5.22117L398.649 585.758C383.192 600.954 358.1 600.898 342.713 585.633L153.124 397.545Z" fill="#A29393"/>
<path d="M153.066 385.692C153.061 390.731 148.912 394.831 143.822 394.826C138.735 394.821 134.594 390.713 134.599 385.675C134.604 380.637 138.753 376.536 143.839 376.541C148.931 376.546 153.07 380.654 153.066 385.692ZM160.642 385.7C160.651 376.513 153.132 369.053 143.848 369.044C134.565 369.035 127.036 376.48 127.027 385.667C127.018 394.865 134.533 402.321 143.816 402.33C153.1 402.339 160.634 394.897 160.642 385.7Z" fill="#A29393"/>
<path d="M180.143 562.283C180.139 567.321 175.989 571.422 170.9 571.417C165.813 571.412 161.672 567.304 161.677 562.266C161.682 557.227 165.831 553.127 170.917 553.132C176.009 553.137 180.148 557.245 180.143 562.283ZM187.72 562.291C187.729 553.103 180.21 545.644 170.926 545.635C161.643 545.626 154.114 553.071 154.105 562.258C154.096 571.455 161.611 578.912 170.894 578.921C180.178 578.93 187.712 571.488 187.72 562.291Z" fill="#216628"/>
<path d="M571.543 525.803C571.539 530.846 567.391 534.947 562.3 534.942C557.212 534.937 553.074 530.828 553.079 525.785C553.083 520.747 557.229 516.648 562.317 516.653C567.409 516.658 571.548 520.765 571.543 525.803ZM579.117 525.81C579.126 516.618 571.608 509.163 562.325 509.154C553.044 509.145 545.511 516.586 545.502 525.778C545.493 534.972 553.012 542.432 562.293 542.441C571.576 542.45 579.108 535.004 579.117 525.81Z" fill="#216628"/>
<path d="M201.801 495.137L207.735 489.289L213.64 495.148L207.724 501.013C201.801 495.137 207.724 501.013 201.801 495.137ZM220.778 476.399L226.697 470.551L232.619 476.411L226.686 482.276C220.778 476.399 226.686 482.276 220.778 476.399ZM239.738 457.662L245.654 451.797L251.579 457.673L245.643 463.521C239.738 457.662 245.644 463.521 239.738 457.662ZM258.7 438.908L264.633 433.059L270.539 438.919L264.621 444.784C258.7 438.908 264.621 444.784 258.7 438.908ZM277.675 420.17L283.593 414.322L289.516 420.181L283.582 426.046C277.675 420.17 283.582 426.046 277.675 420.17ZM296.636 401.432L302.572 395.568L308.477 401.444L302.56 407.292C296.636 401.432 302.56 407.292 296.636 401.432ZM315.596 382.678L321.53 376.83L327.454 382.69L321.519 388.554C315.596 382.678 321.519 388.554 315.596 382.678ZM334.575 363.941L340.491 358.076L346.416 363.952L340.479 369.817C334.575 363.94 340.479 369.817 334.575 363.941ZM353.533 345.203L359.468 339.338L365.374 345.214L359.456 351.063C353.533 345.203 359.456 351.063 353.533 345.203ZM372.512 326.449L378.43 320.6L384.351 326.46L378.418 332.325C372.512 326.449 378.418 332.325 372.512 326.449ZM391.471 307.711L397.405 301.846L403.312 307.722L397.394 313.587C391.471 307.711 397.394 313.587 391.471 307.711ZM410.448 288.973L416.364 283.109L422.289 288.985L416.352 294.833C410.448 288.973 416.354 294.833 410.448 288.973ZM429.41 270.219L435.326 264.371L441.249 270.231L435.314 276.095C429.41 270.219 435.314 276.095 429.41 270.219ZM448.37 251.482L454.304 245.617L460.209 251.493L454.293 257.341C448.37 251.482 454.293 257.341 448.37 251.482ZM467.345 232.744L473.263 226.879L479.186 232.755L473.252 238.604C467.345 232.744 473.252 238.604 467.345 232.744ZM486.306 213.99L492.24 208.141L498.146 214.001L492.229 219.866C486.306 213.99 492.229 219.866 486.306 213.99ZM505.268 195.252L511.2 189.387L517.125 195.263L511.189 201.112C505.268 195.252 511.189 201.112 505.268 195.252ZM524.243 176.514L530.161 170.65L536.082 176.526L530.149 182.374C524.243 176.514 530.151 182.374 524.243 176.514ZM543.203 157.76L549.139 151.912L555.044 157.772L549.128 163.636C543.203 157.76 549.128 163.636 543.203 157.76Z" fill="#A29393"/>
<path d="M470.01 330.885L474.654 326.269L479.304 330.894L474.645 335.498C470.01 330.885 474.645 335.498 470.01 330.885ZM455.139 316.105L459.797 311.488L464.436 316.114L459.788 320.718C455.139 316.105 459.788 320.718 455.139 316.105ZM440.281 301.312L444.941 296.707L449.577 301.321L444.932 305.938C440.281 301.312 444.932 305.938 440.281 301.312ZM425.424 286.531L430.07 281.914L434.719 286.54L430.061 291.145C425.424 286.531 430.062 291.145 425.424 286.531ZM410.554 271.751L415.213 267.134L419.85 271.76L415.204 276.364C410.554 271.751 415.204 276.364 410.554 271.751ZM395.698 256.958L400.342 252.354L404.994 256.967L400.334 261.584C395.698 256.958 400.334 261.584 395.698 256.958ZM380.826 242.178L385.485 237.561L390.122 242.187L385.476 246.791C380.826 242.178 385.476 246.791 380.826 242.178ZM365.969 227.385L370.63 222.781L375.265 227.394L370.621 232.011C365.969 227.385 370.621 232.011 365.969 227.385ZM351.112 212.605L355.758 208.001L360.408 212.614L355.749 217.231C351.112 212.605 355.749 217.231 351.112 212.605ZM336.243 197.825L340.901 193.208L345.538 197.834L340.892 202.438C336.243 197.825 340.892 202.438 336.243 197.825ZM321.385 183.032L326.031 178.428L330.681 183.041L326.022 187.658C321.385 183.032 326.022 187.658 321.385 183.032ZM306.514 168.252L311.175 163.648L315.824 168.261L311.166 172.878C306.514 168.252 311.166 172.878 306.514 168.252ZM291.657 153.472L296.317 148.855L300.952 153.481L296.308 158.085C291.657 153.472 296.308 158.085 291.657 153.472ZM276.802 138.679L281.446 134.074L286.097 138.688L281.437 143.305C276.802 138.679 281.437 143.305 276.802 138.679ZM261.931 123.899L266.59 119.294L271.228 123.907L266.582 128.525C261.931 123.899 266.58 128.525 261.931 123.899ZM247.073 109.118L251.719 104.501L256.369 109.127L251.71 113.731C247.073 109.118 251.71 113.731 247.073 109.118ZM232.204 94.3253L236.863 89.7212L241.512 94.3343L236.854 98.9514C232.204 94.3253 236.854 98.9514 232.204 94.3253ZM217.347 79.5453L222.005 74.9281L226.642 79.5542L221.996 84.1714C217.347 79.5453 221.996 84.1714 217.347 79.5453ZM202.49 64.7652L207.135 60.148L211.786 64.7741L207.126 69.3782C202.49 64.7652 207.126 69.3782 202.49 64.7652Z" fill="#A29393"/>
<path d="M298.881 334.902L303.454 330.369L308.033 334.911L303.445 339.432C298.881 334.902 303.445 339.432 298.881 334.902ZM284.238 320.388L288.825 315.855L293.392 320.397L288.816 324.918C284.238 320.388 288.816 324.918 284.238 320.388ZM269.608 305.862L274.197 301.341L278.761 305.871L274.188 310.405C269.608 305.862 274.188 310.405 269.608 305.862ZM254.978 291.349L259.553 286.815L264.131 291.358L259.544 295.879C254.978 291.349 259.546 295.879 254.978 291.349ZM240.336 276.835L244.924 272.302L249.49 276.844L244.915 281.365C240.336 276.835 244.915 281.365 240.336 276.835ZM225.708 262.309L230.281 257.788L234.862 262.318L230.273 266.852C225.708 262.309 230.273 266.852 225.708 262.309ZM211.064 247.796L215.652 243.262L220.218 247.805L215.643 252.326C211.064 247.796 215.643 252.326 211.064 247.796ZM196.435 233.27L201.024 228.749L205.589 233.278L201.015 237.812C196.435 233.27 201.015 237.812 196.435 233.27ZM181.806 218.756L186.38 214.235L190.959 218.765L186.372 223.299C181.806 218.756 186.372 223.299 181.806 218.756ZM167.165 204.243L171.751 199.709L176.317 204.252L171.742 208.773C167.165 204.243 171.742 208.773 167.165 204.243ZM152.534 189.717L157.109 185.196L161.688 189.725L157.1 194.259C152.534 189.717 157.1 194.259 152.534 189.717ZM137.892 175.203L142.481 170.682L147.058 175.212L142.472 179.746C137.892 175.203 142.472 179.746 137.892 175.203ZM123.262 160.69L127.85 156.156L132.415 160.699L127.841 165.22C123.262 160.69 127.841 165.22 123.262 160.69ZM108.634 146.164L113.208 141.643L117.787 146.172L113.199 150.706C108.634 146.164 113.199 150.706 108.634 146.164ZM93.992 131.65L98.5797 127.129L103.146 131.659L98.5709 136.193C93.992 131.65 98.5696 136.193 93.992 131.65ZM79.3613 117.137L83.9361 112.603L88.515 117.146L83.9273 121.667C79.3613 117.137 83.9273 121.667 79.3613 117.137ZM64.7203 102.611L69.308 98.0897L73.8857 102.619L69.2993 107.153C64.7203 102.611 69.2993 107.153 64.7203 102.611ZM50.091 88.0973L54.6774 83.5635L59.2434 88.1061L54.6686 92.6399C50.091 88.0973 54.6686 92.6399 50.091 88.0973ZM35.4616 73.5839L40.0351 69.0501L44.6153 73.5927L40.0264 78.1137C35.4617 73.5839 40.0263 78.1137 35.4616 73.5839Z" fill="#216628"/>
<path d="M0.207449 381.493C0.216558 372.039 3.91894 363.18 10.6333 356.544L286.899 83.5296L290.217 86.8211L13.9511 359.836C8.12706 365.596 4.9126 373.286 4.90469 381.497C4.89678 389.71 8.09641 397.406 13.9093 403.176L163.284 551.367L159.96 554.652L10.5852 406.463C3.88235 399.813 0.198339 390.947 0.207449 381.493Z" fill="#216628"/>
</g>
<g opacity="0.1">
<path d="M912.154 351.921L783.36 472.78C775.95 479.851 772.149 489.979 773.621 500.206L794.774 655.525C794.774 655.525 805.1 655.591 818.974 661.167" stroke="#216628" stroke-width="5" stroke-miterlimit="10" stroke-linejoin="round"/>
<path d="M765.672 657.295L745.565 498.925C744.517 491.373 741.181 484.293 736.055 478.921L718.455 460.479" stroke="#A29393" stroke-width="5" stroke-miterlimit="10" stroke-linejoin="round" stroke-dasharray="5 5"/>
<path d="M731.653 554.967L746.924 658.081C746.924 658.081 717.415 662.295 684.291 693.907" stroke="#A29393" stroke-width="5" stroke-miterlimit="10" stroke-linejoin="round"/>
<path d="M721.392 462.125C726.138 457.596 726.314 450.076 721.784 445.329C717.254 440.583 709.734 440.407 704.988 444.937C700.241 449.466 700.066 456.986 704.595 461.733C709.125 466.479 716.645 466.655 721.392 462.125Z" stroke="#A29393" stroke-width="5" stroke-miterlimit="10" stroke-linejoin="round"/>
<path d="M928.771 352.483C933.517 347.953 933.693 340.434 929.164 335.687C924.634 330.94 917.114 330.765 912.367 335.295C907.621 339.824 907.445 347.344 911.975 352.091C916.505 356.837 924.024 357.013 928.771 352.483Z" stroke="#216628" stroke-width="5" stroke-miterlimit="10" stroke-linejoin="round"/>
</g>
</g>
<defs>
<clipPath id="clip0">
<rect width="1020" height="598" fill="white"/>
</clipPath>
</defs>
</svg>
