<svg width="1057" height="446" viewBox="0 0 1057 446" fill="none" xmlns="http://www.w3.org/2000/svg">
<g clip-path="url(#clip0)">
<g opacity="0.1">
<path d="M699.982 112.76L704.691 117.08L441.533 359.082L436.825 354.761L699.982 112.76Z" fill="#216628"/>
<path d="M584.055 0.147273L1008.86 389.625L1004.16 393.954L579.352 4.47623L584.055 0.147273Z" fill="#A29393"/>
<path d="M1006.66 401.99C1006.66 407.115 1011.21 411.28 1016.78 411.274C1022.36 411.269 1026.89 407.095 1026.88 401.97C1026.88 396.851 1022.34 392.684 1016.77 392.689C1011.19 392.695 1006.65 396.868 1006.66 401.99ZM998.357 401.998C998.348 392.657 1006.59 385.08 1016.76 385.07C1026.93 385.061 1035.17 392.621 1035.18 401.962C1035.19 411.305 1026.96 418.885 1016.79 418.895C1006.62 418.905 998.366 411.341 998.357 401.998Z" fill="#A29393"/>
<path d="M879.84 233.902L875.13 229.582L667.444 420.736C653.176 433.869 629.907 433.92 615.577 420.845L-31.1439 -169.062L-35.8361 -164.72L610.885 425.186C627.814 440.626 655.3 440.568 672.155 425.054L879.84 233.902Z" fill="#A29393"/>
<path d="M879.904 221.857C879.909 226.977 884.454 231.143 890.029 231.138C895.6 231.133 900.137 226.957 900.132 221.838C900.127 216.718 895.583 212.551 890.011 212.557C884.434 212.562 879.899 216.737 879.904 221.857ZM871.605 221.865C871.596 212.529 879.833 204.947 890.002 204.938C900.171 204.928 908.417 212.493 908.426 221.83C908.435 231.176 900.203 238.754 890.034 238.764C879.865 238.773 871.614 231.211 871.605 221.865Z" fill="#A29393"/>
<path d="M850.231 401.314C850.236 406.434 854.78 410.6 860.356 410.595C865.927 410.59 870.464 406.414 870.459 401.295C870.454 396.175 865.909 392.008 860.338 392.014C854.761 392.019 850.226 396.194 850.231 401.314ZM841.931 401.322C841.922 391.986 850.16 384.404 860.328 384.395C870.497 384.385 878.744 391.95 878.753 401.287C878.762 410.633 870.53 418.211 860.361 418.221C850.192 418.23 841.94 410.668 841.931 401.322Z" fill="#216628"/>
<path d="M421.505 364.271C421.51 369.396 426.053 373.563 431.63 373.557C437.203 373.552 441.736 369.377 441.731 364.252C441.726 359.132 437.185 354.967 431.612 354.972C426.035 354.978 421.5 359.151 421.505 364.271ZM413.209 364.279C413.2 354.938 421.435 347.362 431.604 347.352C441.77 347.342 450.021 354.902 450.03 364.244C450.039 373.587 441.802 381.168 431.637 381.178C421.468 381.188 413.218 373.622 413.209 364.279Z" fill="#216628"/>
<path d="M826.513 333.081L820.013 327.139L813.544 333.094L820.024 339.053C826.513 333.081 820.024 339.053 826.513 333.081ZM805.727 314.041L799.244 308.099L792.757 314.054L799.255 320.013C805.727 314.041 799.255 320.013 805.727 314.041ZM784.96 295.001L778.48 289.042L771.99 295.014L778.492 300.956C784.96 295.001 778.49 300.956 784.96 295.001ZM764.191 275.944L757.693 270.002L751.223 275.957L757.704 281.916C764.191 275.944 757.704 281.916 764.191 275.944ZM743.407 256.904L736.926 250.962L730.437 256.917L736.937 262.876C743.408 256.904 736.937 262.876 743.407 256.904ZM722.64 237.864L716.138 231.905L709.67 237.877L716.15 243.819C722.64 237.864 716.15 243.819 722.64 237.864ZM701.873 218.807L695.373 212.865L688.885 218.82L695.385 224.779C701.873 218.807 695.385 224.779 701.873 218.807ZM681.086 199.767L674.606 193.808L668.116 199.78L674.618 205.739C681.086 199.767 674.618 205.739 681.086 199.767ZM660.321 180.727L653.821 174.768L647.35 180.74L653.832 186.683C660.321 180.727 653.832 186.683 660.321 180.727ZM639.533 161.671L633.052 155.728L626.565 161.683L633.063 167.643C639.533 161.671 633.063 167.643 639.533 161.671ZM618.768 142.631L612.268 136.671L605.798 142.643L612.28 148.603C618.768 142.631 612.279 148.603 618.768 142.631ZM597.983 123.591L591.503 117.631L585.012 123.603L591.514 129.546C597.983 123.591 591.512 129.546 597.983 123.591ZM577.214 104.534L570.734 98.5911L564.245 104.546L570.745 110.506C577.214 104.534 570.745 110.506 577.214 104.534ZM556.447 85.4937L549.947 79.5343L543.478 85.5062L549.958 91.4489C556.447 85.4938 549.958 91.4489 556.447 85.4937ZM535.663 66.4538L529.181 60.4943L522.693 66.4663L529.193 72.4089C535.663 66.4538 529.193 72.4089 535.663 66.4538ZM514.896 47.3969L508.396 41.4543L501.926 47.4094L508.407 53.3689C514.896 47.3969 508.407 53.3689 514.896 47.3969ZM494.127 28.3569L487.629 22.3974L481.138 28.3694L487.64 34.312C494.127 28.3569 487.64 34.312 494.127 28.3569ZM473.343 9.31689L466.862 3.3574L460.375 9.32939L466.873 15.272C473.343 9.31689 466.871 15.272 473.343 9.31689ZM452.576 -9.73997L446.074 -15.6826L439.606 -9.72747L446.086 -3.76798C452.576 -9.73997 446.086 -3.76798 452.576 -9.73997Z" fill="#A29393"/>
<path fill-rule="evenodd" clip-rule="evenodd" d="M527.651 161.494L532.738 166.185L527.66 170.873L522.557 166.194L527.651 161.494ZM543.926 146.472L549.028 151.164L543.935 155.852L538.845 151.174L543.926 146.472ZM560.2 131.451L565.304 136.13L560.209 140.831L555.121 136.14L560.2 131.451ZM576.491 116.417L581.579 121.109C579.196 123.308 579.049 123.444 579.04 123.452C579.04 123.452 579.04 123.452 578.967 123.519L578.791 123.682L576.5 125.797L571.398 121.119L576.491 116.417ZM592.766 101.396L597.869 106.088L592.775 110.776L587.686 106.098L592.766 101.396ZM609.055 86.3755L614.143 91.0539L609.064 95.7554L603.96 91.0637L609.055 86.3755ZM625.331 71.3414L630.434 76.033L625.34 80.7213L620.251 76.0428L625.331 71.3414ZM641.604 56.3205L646.709 60.9989L641.613 65.7004L636.526 61.0087L641.604 56.3205ZM657.895 41.2997L662.984 45.9781L657.904 50.6795L652.801 45.9879L657.895 41.2997ZM674.17 26.2656L679.272 30.9572L674.179 35.6454L669.091 30.967L674.17 26.2656ZM690.46 11.2447L695.549 15.9231C690.469 20.6246 695.549 15.9231 690.469 20.6246L685.366 15.9329L690.46 11.2447ZM706.734 -3.77615L711.838 0.90225L706.743 5.60372L701.641 0.912075L706.734 -3.77615ZM723.01 -18.8103L728.113 -14.1186L723.019 -9.43039L717.932 -14.1088L723.01 -18.8103ZM739.3 -33.8311L744.387 -29.1527L739.309 -24.4512L734.206 -29.1429L739.3 -33.8311Z" fill="#A29393"/>
<path fill-rule="evenodd" clip-rule="evenodd" d="M715.178 165.65L720.187 170.255L715.186 174.859L710.162 170.265L715.178 165.65ZM731.203 150.898L736.227 155.505L731.212 160.109L726.2 155.515L731.203 150.898ZM747.228 136.149L752.254 140.743L747.236 145.359L742.227 140.752L747.228 136.149ZM763.269 121.386L768.279 125.993L768.187 126.078C765.792 128.281 765.778 128.295 765.778 128.295C765.778 128.295 765.793 128.281 763.278 130.596L758.254 126.002L763.269 121.386ZM779.294 106.636L784.319 111.243L779.303 115.847L774.293 111.253L779.294 106.636ZM795.334 91.8861L800.344 96.4801L795.343 101.097L790.317 96.4898L795.334 91.8861ZM811.36 77.1233L816.385 81.7303L811.369 86.3339L806.358 81.7399L811.36 77.1233ZM827.384 62.3735L832.41 66.9674L827.393 71.5841L822.384 66.9771L827.384 62.3735ZM843.425 47.6236L848.436 52.2176L843.434 56.8342L838.409 52.2272L843.425 47.6236ZM859.451 32.8608L864.475 37.4677L859.46 42.0714L854.449 37.4774L859.451 32.8608ZM875.491 18.1109L880.502 22.7049L875.5 27.3215L870.475 22.7145L875.491 18.1109ZM891.515 3.36109L896.542 7.95505L891.524 12.5717L886.501 7.96472L891.515 3.36109Z" fill="#216628"/>
<path fill-rule="evenodd" clip-rule="evenodd" d="M1035.92 192.224C1043.28 198.968 1047.33 207.97 1047.34 217.577C1047.35 227.185 1043.31 236.195 1035.97 242.953L872.34 393.556L868.699 390.218L1032.33 239.614C1038.7 233.749 1042.2 225.928 1042.2 217.582C1042.19 209.238 1038.67 201.423 1032.29 195.571L779.588 -37.8801L783.588 -41.5913L1035.92 192.224Z" fill="#216628"/>
<path d="M628.052 -178.101L632.552 -179.601L783.588 -41.5913L779.588 -37.8801L628.052 -178.101Z" fill="#216628"/>
</g>
<g opacity="0.1">
<path d="M142.47 94.8839L125.735 287.623C124.671 298.792 118.531 308.927 108.732 314.59L-39.2701 401.638C-39.2701 401.638 -46.325 392.795 -60.5254 384.634" stroke="#216628" stroke-width="5" stroke-miterlimit="10" stroke-linejoin="round"/>
<path d="M-21.0717 427.882L128.847 337.867C136.057 333.652 144.41 331.725 152.507 332.497L180.304 335.146" stroke="#A29393" stroke-width="5" stroke-miterlimit="10" stroke-linejoin="round" stroke-dasharray="5 5"/>
<path d="M90.0443 387.816L-9.0445 444.549C-9.0445 444.549 7.32526 472.8 2.56699 522.728" stroke="#A29393" stroke-width="5" stroke-miterlimit="10" stroke-linejoin="round"/>
<path d="M176.898 333.735C177.58 326.58 183.933 321.333 191.087 322.015C198.242 322.697 203.489 329.049 202.807 336.204C202.125 343.358 195.772 348.605 188.618 347.924C181.464 347.242 176.217 340.889 176.898 333.735Z" stroke="#A29393" stroke-width="5" stroke-miterlimit="10" stroke-linejoin="round"/>
<path d="M130.726 80.9634C131.407 73.8089 137.76 68.5618 144.914 69.2437C152.069 69.9255 157.316 76.2781 156.634 83.4325C155.952 90.5869 149.6 95.834 142.445 95.1521C135.291 94.4703 130.044 88.1178 130.726 80.9634Z" stroke="#216628" stroke-width="5" stroke-miterlimit="10" stroke-linejoin="round"/>
</g>
</g>
<defs>
<clipPath id="clip0">
<rect width="1057" height="446" fill="white"/>
</clipPath>
</defs>
</svg>
