<svg width="0" height="0" class="hidden">
  <symbol viewBox="0 0 10 18"  xmlns="http://www.w3.org/2000/svg" id="facebook">
    <path d="M9.365.004L7.031 0C4.409 0 2.714 1.739 2.714 4.43v2.042H.367A.367.367 0 0 0 0 6.84V9.8c0 .203.164.367.367.367h2.347v7.467c0 .203.164.367.367.367h3.062a.367.367 0 0 0 .367-.367v-7.467h2.744a.367.367 0 0 0 .367-.367l.001-2.96a.368.368 0 0 0-.367-.367H6.51V4.741c0-.832.198-1.255 1.282-1.255h1.573a.367.367 0 0 0 .367-.367V.37a.367.367 0 0 0-.367-.367z"
    ></path>
  </symbol>

  <symbol viewBox="0 0 18 18"  xmlns="http://www.w3.org/2000/svg" id="twitter">
    <g clip-path="url(#clip0)">
      <path d="M17.592 3.332a6.824 6.824 0 0 1-.87.318c.35-.398.619-.866.783-1.378a.29.29 0 0 0-.425-.338 6.85 6.85 0 0 1-2.025.8 3.883 3.883 0 0 0-2.705-1.102 3.868 3.868 0 0 0-3.832 4.363 9.893 9.893 0 0 1-6.79-3.602.29.29 0 0 0-.476.037 3.862 3.862 0 0 0-.524 1.943c0 .931.333 1.814.92 2.505a3.273 3.273 0 0 1-.517-.231.29.29 0 0 0-.431.247v.052c0 1.39.747 2.64 1.89 3.322a3.341 3.341 0 0 1-.293-.042.29.29 0 0 0-.331.374 3.863 3.863 0 0 0 2.83 2.59 6.836 6.836 0 0 1-3.654 1.043c-.273 0-.549-.017-.818-.049a.29.29 0 0 0-.19.533 10.42 10.42 0 0 0 5.634 1.652c3.934 0 6.395-1.855 7.767-3.412 1.71-1.94 2.692-4.509 2.692-7.047 0-.106-.002-.213-.005-.32a7.513 7.513 0 0 0 1.729-1.83.29.29 0 0 0-.36-.428z"
        ></path>
    </g>
    <defs>
      <clipPath id="clip0">
        <path d="M0 0h18v18H0z"></path>
      </clipPath>
    </defs>
  </symbol>

   <symbol viewBox="0 0 18 18" xmlns="http://www.w3.org/2000/svg" id="linkedin">
    <g clip-path="url(#clip0)">
      <path d="M17.995 18v-.001h.004v-6.602c0-3.23-.695-5.717-4.47-5.717-1.816 0-3.034.996-3.53 1.94h-.053V5.982h-3.58v12.017h3.727v-5.95c0-1.567.297-3.082 2.238-3.082 1.911 0 1.94 1.787 1.94 3.182v5.85h3.724zM.298 5.983H4.03V18H.298V5.983zM2.162 0A2.162 2.162 0 0 0 0 2.162c0 1.193.968 2.181 2.162 2.181 1.193 0 2.161-.988 2.161-2.181A2.163 2.163 0 0 0 2.161 0z"></path>
    </g>
    <defs>
      <clipPath id="clip0">
        <path d="M0 0h18v18H0z"></path>
      </clipPath>
    </defs>
  </symbol>

  <symbol viewBox="0 0 18 18" xmlns="http://www.w3.org/2000/svg" id="copy">
    <path d="M10.981 7.016a4.2 4.2 0 0 0-5.939 0l-3.815 3.818a4.2 4.2 0 0 0 5.936 5.942l3.15-3.15a.3.3 0 0 0-.213-.512h-.12a5.048 5.048 0 0 1-1.92-.372.3.3 0 0 0-.327.066l-2.265 2.268a1.8 1.8 0 0 1-2.546-2.547l3.83-3.827a1.8 1.8 0 0 1 2.544 0 1.23 1.23 0 0 0 1.685 0 1.2 1.2 0 0 0 .348-.762 1.2 1.2 0 0 0-.348-.924z"
      ></path>
    <path d="M16.766 1.23a4.2 4.2 0 0 0-5.939 0L7.681 4.373a.3.3 0 0 0 .218.513h.111a5.04 5.04 0 0 1 1.917.375.3.3 0 0 0 .327-.066l2.259-2.255a1.8 1.8 0 0 1 2.546 2.546l-2.813 2.81-.024.028-.984.978a1.8 1.8 0 0 1-2.544 0 1.23 1.23 0 0 0-1.685 0 1.2 1.2 0 0 0 0 1.692 4.19 4.19 0 0 0 1.2.84c.062.03.125.053.188.08.063.027.13.048.192.072.063.024.13.045.192.063l.177.048c.12.03.24.054.363.075.148.022.297.036.447.042h.228l.18-.021c.066-.003.135-.018.213-.018h.102l.207-.03.096-.018.174-.036H11a4.198 4.198 0 0 0 1.947-1.104l3.818-3.818a4.2 4.2 0 0 0 0-5.939z"></path>
  </symbol>
</svg>